<svg id="svg" version="1.1" width="400" height="119.97600479904018" viewBox="0 0 400 119.97600479904018" xmlns="http://www.w3.org/2000/svg" xmlns:xlink="http://www.w3.org/1999/xlink" ><g id="svgg"><path id="path0" d="M34.417 58.265 C 22.924 58.761,20.933 59.029,19.240 60.308 C 17.606 61.543,16.664 63.387,16.333 66.000 C 16.234 66.779,16.063 68.092,15.954 68.917 C 15.678 70.992,15.678 86.203,15.953 88.250 C 16.064 89.075,16.239 90.425,16.343 91.250 C 16.826 95.104,18.830 97.476,22.106 98.071 C 28.650 99.261,48.880 99.304,56.990 98.145 C 62.690 97.330,64.009 93.182,63.787 76.778 C 63.588 62.173,62.491 59.734,55.753 58.918 C 51.985 58.462,39.036 58.066,34.417 58.265 M114.583 58.265 C 99.957 58.895,98.568 59.316,97.032 63.583 C 95.773 67.080,95.277 81.837,96.183 88.833 C 96.272 89.521,96.420 90.683,96.513 91.417 C 96.972 95.053,98.807 97.340,101.803 98.012 C 107.731 99.340,133.498 99.260,138.333 97.899 C 142.990 96.587,144.184 92.089,143.950 76.750 C 143.728 62.228,142.618 59.764,135.917 58.924 C 132.237 58.462,119.292 58.062,114.583 58.265 M36.894 71.138 C 39.027 72.636,44.942 76.755,46.407 77.761 C 47.719 78.663,47.747 78.577,45.705 79.969 C 42.942 81.854,36.364 86.437,35.744 86.910 C 35.439 87.143,35.109 87.333,35.011 87.333 C 34.887 87.333,34.833 84.670,34.833 78.583 C 34.833 73.771,34.879 69.833,34.935 69.833 C 34.991 69.833,35.873 70.420,36.894 71.138 M116.557 70.803 C 117.305 71.336,120.115 73.299,122.801 75.164 C 127.456 78.396,127.671 78.569,127.384 78.841 C 127.135 79.077,122.839 82.081,117.667 85.636 C 117.071 86.045,116.302 86.601,115.958 86.871 C 115.615 87.140,115.257 87.336,115.164 87.305 C 115.023 87.258,114.958 80.626,114.998 70.250 C 115.001 69.692,115.001 69.692,116.557 70.803 " stroke="none" fill="#f3cb10" fill-rule="evenodd"></path><path id="path1" d="M145.340 7.456 C 143.293 8.261,143.262 12.563,145.297 13.355 C 146.403 13.786,148.708 13.278,148.541 12.641 C 148.443 12.266,148.382 12.263,147.750 12.608 C 146.064 13.529,144.333 12.468,144.333 10.515 C 144.333 8.442,145.935 7.443,147.731 8.398 C 148.377 8.741,148.492 8.760,148.578 8.537 C 148.850 7.829,146.437 7.024,145.340 7.456 M152.917 7.455 C 151.188 7.886,150.728 11.603,152.231 12.990 C 152.986 13.686,155.837 13.618,156.114 12.897 C 156.277 12.472,155.946 12.323,155.432 12.589 C 154.221 13.218,152.617 12.940,152.397 12.063 C 152.342 11.845,152.230 11.667,152.149 11.667 C 152.067 11.667,152.000 11.142,152.000 10.500 C 152.000 9.833,152.071 9.333,152.167 9.333 C 152.258 9.333,152.333 9.224,152.333 9.090 C 152.333 8.558,153.207 8.000,154.040 8.000 C 154.476 8.000,154.833 8.067,154.833 8.149 C 154.833 8.230,155.039 8.349,155.290 8.412 C 155.541 8.475,155.796 8.606,155.855 8.702 C 155.921 8.808,156.038 8.741,156.148 8.534 C 156.503 7.871,154.257 7.121,152.917 7.455 M29.167 55.010 C 27.196 55.093,25.321 55.235,25.000 55.325 C 24.679 55.414,23.742 55.536,22.917 55.594 C 22.092 55.653,21.342 55.758,21.250 55.828 C 21.158 55.899,20.805 56.007,20.465 56.068 C 20.125 56.129,19.638 56.288,19.382 56.422 C 19.126 56.555,18.831 56.665,18.725 56.666 C 17.918 56.670,15.189 59.792,14.501 61.500 C 14.409 61.729,14.262 62.041,14.174 62.194 C 14.087 62.346,13.964 62.871,13.902 63.360 C 13.840 63.850,13.727 64.329,13.650 64.427 C 13.574 64.524,13.432 65.386,13.335 66.343 C 13.237 67.300,13.075 68.871,12.976 69.833 C 12.739 72.114,12.739 85.064,12.976 87.333 C 13.076 88.296,13.236 89.864,13.330 90.818 C 13.425 91.771,13.571 92.635,13.655 92.736 C 13.739 92.837,13.861 93.388,13.925 93.960 C 13.990 94.532,14.108 95.000,14.188 95.000 C 14.268 95.000,14.336 95.094,14.339 95.208 C 14.363 96.171,16.411 99.001,17.667 99.808 C 17.896 99.955,18.143 100.171,18.217 100.288 C 18.290 100.404,18.477 100.502,18.633 100.505 C 18.789 100.508,19.062 100.621,19.240 100.755 C 19.418 100.890,19.722 101.000,19.915 101.000 C 20.109 101.000,20.338 101.068,20.425 101.151 C 20.617 101.335,22.714 101.667,23.679 101.667 C 24.064 101.667,24.649 101.743,24.981 101.835 C 27.566 102.558,53.903 102.530,54.352 101.803 C 54.408 101.712,54.503 101.655,54.562 101.676 C 54.931 101.806,58.177 101.430,59.024 101.159 C 59.585 100.980,60.146 100.833,60.272 100.833 C 60.397 100.833,60.500 100.766,60.500 100.685 C 60.500 100.603,60.688 100.489,60.917 100.432 C 61.146 100.374,61.333 100.253,61.333 100.163 C 61.333 100.074,61.419 100.000,61.524 100.000 C 61.750 100.000,64.000 97.758,64.000 97.533 C 64.000 97.448,64.145 97.194,64.323 96.968 C 64.501 96.742,64.696 96.357,64.758 96.112 C 64.819 95.867,64.933 95.667,65.011 95.667 C 65.088 95.667,65.202 95.385,65.264 95.042 C 65.326 94.698,65.433 94.342,65.501 94.250 C 65.570 94.158,65.679 93.578,65.743 92.960 C 65.807 92.342,65.922 91.798,65.998 91.752 C 66.073 91.705,66.183 90.935,66.241 90.041 C 66.299 89.148,66.456 87.397,66.590 86.151 C 66.914 83.129,66.919 74.369,66.597 71.226 C 66.467 69.956,66.309 68.147,66.246 67.207 C 66.182 66.267,66.070 65.460,65.995 65.414 C 65.920 65.368,65.807 64.843,65.744 64.248 C 65.680 63.653,65.571 63.167,65.502 63.167 C 65.433 63.167,65.327 62.792,65.266 62.333 C 65.205 61.875,65.089 61.500,65.008 61.500 C 64.926 61.500,64.809 61.270,64.748 60.989 C 64.686 60.708,64.537 60.440,64.416 60.393 C 64.295 60.347,64.155 60.146,64.104 59.946 C 63.981 59.466,61.853 57.242,61.375 57.094 C 61.169 57.030,61.000 56.911,61.000 56.830 C 61.000 56.748,60.737 56.633,60.417 56.572 C 60.096 56.512,59.833 56.401,59.833 56.325 C 59.833 56.249,59.477 56.135,59.042 56.070 C 58.606 56.006,58.212 55.901,58.167 55.837 C 58.073 55.706,55.352 55.379,52.583 55.165 C 49.781 54.949,33.210 54.839,29.167 55.010 M109.333 55.007 C 107.362 55.089,105.525 55.227,105.250 55.314 C 104.975 55.401,104.019 55.523,103.125 55.585 C 102.232 55.647,101.463 55.759,101.417 55.833 C 101.371 55.908,100.958 56.020,100.500 56.083 C 100.042 56.146,99.667 56.263,99.667 56.341 C 99.667 56.420,99.404 56.534,99.083 56.594 C 98.763 56.655,98.500 56.768,98.500 56.848 C 98.500 56.927,98.284 57.103,98.020 57.240 C 97.566 57.475,96.771 58.237,96.013 59.167 C 95.826 59.396,95.599 59.671,95.510 59.777 C 95.420 59.884,95.300 60.160,95.242 60.390 C 95.184 60.621,95.031 60.850,94.902 60.899 C 94.772 60.949,94.666 61.123,94.666 61.286 C 94.665 61.450,94.555 61.794,94.420 62.052 C 94.285 62.310,94.125 62.910,94.063 63.386 C 94.001 63.861,93.889 64.291,93.812 64.341 C 93.736 64.391,93.625 65.103,93.564 65.924 C 93.504 66.745,93.393 67.495,93.319 67.591 C 93.244 67.686,93.136 69.449,93.079 71.507 C 93.022 73.566,92.902 75.402,92.813 75.587 C 92.548 76.139,93.012 88.905,93.322 89.583 C 93.406 89.767,93.521 90.552,93.577 91.328 C 93.634 92.104,93.747 92.780,93.827 92.830 C 93.908 92.880,94.027 93.388,94.092 93.960 C 94.157 94.532,94.265 95.000,94.333 95.000 C 94.401 95.000,94.551 95.337,94.667 95.750 C 94.782 96.162,94.934 96.500,95.004 96.500 C 95.073 96.500,95.178 96.688,95.235 96.917 C 95.293 97.146,95.413 97.333,95.503 97.333 C 95.593 97.333,95.667 97.438,95.667 97.566 C 95.667 97.878,97.530 99.768,97.978 99.910 C 98.173 99.972,98.333 100.091,98.333 100.174 C 98.333 100.370,99.716 101.000,100.148 101.000 C 100.331 101.000,100.522 101.067,100.573 101.149 C 100.770 101.468,107.350 102.134,110.508 102.155 C 111.475 102.161,112.343 102.243,112.437 102.337 C 112.852 102.752,134.251 102.236,134.518 101.804 C 134.574 101.713,134.669 101.655,134.729 101.676 C 135.098 101.806,138.344 101.430,139.191 101.159 C 139.752 100.980,140.313 100.833,140.438 100.833 C 140.564 100.833,140.667 100.758,140.667 100.667 C 140.667 100.575,140.764 100.500,140.883 100.500 C 141.386 100.500,143.986 98.005,144.318 97.203 C 144.440 96.908,144.600 96.667,144.674 96.667 C 144.747 96.667,144.856 96.442,144.917 96.167 C 144.977 95.892,145.089 95.667,145.166 95.667 C 145.524 95.667,146.310 91.066,146.552 87.555 C 146.661 85.980,146.806 84.637,146.875 84.568 C 147.071 84.374,147.030 72.833,146.833 72.833 C 146.736 72.833,146.661 72.226,146.652 71.375 C 146.628 68.926,145.959 63.379,145.663 63.167 C 145.599 63.121,145.494 62.727,145.430 62.292 C 145.365 61.856,145.248 61.500,145.170 61.500 C 145.091 61.500,144.977 61.275,144.917 61.000 C 144.856 60.725,144.739 60.500,144.656 60.500 C 144.573 60.500,144.402 60.256,144.276 59.958 C 144.011 59.330,141.994 57.240,141.502 57.084 C 141.317 57.025,141.167 56.911,141.167 56.830 C 141.167 56.748,140.904 56.633,140.583 56.572 C 140.262 56.512,140.000 56.401,140.000 56.325 C 140.000 56.249,139.644 56.135,139.208 56.070 C 138.773 56.006,138.379 55.901,138.333 55.837 C 138.240 55.706,135.519 55.379,132.750 55.165 C 129.965 54.951,113.394 54.839,109.333 55.007 M51.197 58.414 C 53.426 58.550,55.663 58.735,56.167 58.825 C 56.671 58.914,57.374 59.033,57.730 59.089 C 62.559 59.845,64.000 64.388,63.992 78.833 C 63.983 94.007,62.576 97.593,56.333 98.348 C 55.646 98.431,54.446 98.575,53.667 98.668 C 48.140 99.329,32.059 99.240,24.333 98.506 C 16.975 97.807,15.765 95.314,15.547 80.391 C 15.392 69.759,16.033 64.124,17.669 61.746 C 18.980 59.840,20.268 59.234,24.083 58.727 C 28.278 58.170,44.190 57.986,51.197 58.414 M131.417 58.419 C 143.195 59.156,144.049 60.522,144.037 78.583 C 144.026 94.527,142.862 97.579,136.500 98.348 C 135.813 98.431,134.612 98.574,133.833 98.667 C 128.261 99.327,111.967 99.237,104.431 98.505 C 96.851 97.768,95.751 95.255,95.750 78.667 C 95.750 62.890,96.828 59.884,102.833 58.931 C 107.508 58.190,123.251 57.907,131.417 58.419 M34.850 78.583 C 34.859 83.304,34.929 87.167,35.004 87.167 C 35.119 87.167,41.563 82.743,43.750 81.162 C 44.117 80.897,45.070 80.246,45.868 79.715 C 47.629 78.543,47.625 78.746,45.907 77.564 C 45.122 77.025,44.116 76.321,43.671 76.000 C 43.225 75.679,41.610 74.554,40.080 73.500 C 38.551 72.446,36.816 71.227,36.225 70.792 C 35.635 70.356,35.080 70.000,34.992 70.000 C 34.892 70.000,34.839 73.216,34.850 78.583 M115.000 78.583 C 115.000 83.824,115.061 87.167,115.157 87.167 C 115.243 87.167,115.869 86.773,116.548 86.292 C 117.228 85.810,118.326 85.042,118.989 84.583 C 119.653 84.125,120.674 83.412,121.259 83.000 C 121.843 82.587,123.457 81.462,124.843 80.500 C 126.230 79.537,127.394 78.703,127.430 78.645 C 127.466 78.587,126.103 77.574,124.402 76.395 C 121.552 74.419,118.488 72.293,116.134 70.659 C 115.612 70.297,115.143 70.000,115.092 70.000 C 115.042 70.000,115.000 73.862,115.000 78.583 M119.536 76.376 C 120.479 77.041,121.569 77.801,121.958 78.065 C 122.725 78.585,122.810 78.743,122.405 78.898 C 122.155 78.994,120.608 80.056,118.798 81.375 C 117.451 82.356,117.500 82.462,117.500 78.583 C 117.500 76.497,117.563 75.167,117.661 75.167 C 117.750 75.167,118.593 75.711,119.536 76.376 M39.498 76.954 C 39.727 77.163,39.965 77.333,40.028 77.333 C 40.091 77.333,40.242 77.427,40.363 77.542 C 40.484 77.656,40.808 77.862,41.083 78.000 C 41.784 78.350,42.039 79.000,41.475 79.000 C 41.340 79.000,40.402 79.598,40.167 79.834 C 40.121 79.880,39.887 80.018,39.648 80.141 C 39.408 80.265,39.033 80.531,38.814 80.733 C 37.849 81.626,37.833 81.592,37.833 78.584 L 37.833 75.845 38.458 76.209 C 38.802 76.410,39.270 76.745,39.498 76.954 " stroke="none" fill="#821599" fill-rule="evenodd"></path><path id="path2" d="M80.934 0.580 C 80.699 0.940,80.666 1.456,80.705 4.208 L 80.750 7.417 81.285 7.468 C 82.051 7.542,88.021 1.653,88.059 0.786 L 88.083 0.250 84.646 0.205 L 81.209 0.160 80.934 0.580 M91.708 0.277 C 91.219 0.474,91.621 1.115,93.139 2.556 C 93.445 2.846,93.932 3.334,94.222 3.641 C 94.513 3.948,94.892 4.323,95.065 4.474 C 95.238 4.626,95.725 5.117,96.148 5.566 C 96.571 6.014,97.059 6.502,97.232 6.649 C 97.406 6.796,97.666 7.048,97.811 7.208 C 97.956 7.369,98.282 7.500,98.537 7.500 L 99.000 7.500 99.000 4.169 C 99.000 -0.213,99.360 0.163,95.171 0.180 C 93.381 0.187,91.823 0.231,91.708 0.277 M103.208 2.745 C 99.734 6.268,99.746 6.333,103.832 6.333 C 105.734 6.333,106.001 6.297,106.398 5.985 L 106.841 5.636 106.796 2.943 L 106.750 0.250 106.250 0.209 C 105.806 0.173,105.466 0.456,103.208 2.745 M112.566 0.401 C 112.426 0.768,112.567 5.957,112.722 6.112 C 112.900 6.289,116.959 6.402,117.929 6.257 C 119.269 6.056,119.203 5.938,115.888 2.568 C 113.516 0.157,112.831 -0.290,112.566 0.401 M23.048 1.167 C 23.000 1.350,22.895 1.500,22.814 1.500 C 22.497 1.500,22.636 16.085,22.958 16.652 L 23.250 17.165 25.042 17.166 C 27.750 17.167,27.500 17.996,27.500 9.002 C 27.500 -0.017,27.757 0.833,25.031 0.833 C 23.276 0.833,23.129 0.858,23.048 1.167 M32.787 1.169 C 32.308 1.728,32.351 16.351,32.833 16.833 C 33.332 17.332,36.501 17.332,37.000 16.833 C 37.482 16.351,37.525 1.728,37.046 1.169 C 36.613 0.663,33.220 0.663,32.787 1.169 M4.292 1.316 C 3.996 1.615,3.826 15.417,4.105 16.458 C 4.222 16.895,4.835 16.962,5.500 16.612 C 6.415 16.130,6.756 15.907,6.883 15.708 C 6.957 15.594,7.125 15.500,7.258 15.500 C 7.391 15.500,7.500 15.425,7.500 15.333 C 7.500 15.242,7.607 15.167,7.738 15.167 C 7.869 15.167,8.075 15.070,8.196 14.951 C 8.318 14.833,8.660 14.636,8.958 14.514 C 9.256 14.393,9.500 14.243,9.500 14.183 C 9.500 14.123,9.706 13.984,9.958 13.876 C 10.579 13.609,11.056 13.293,11.217 13.042 C 11.290 12.927,11.459 12.833,11.592 12.833 C 11.725 12.833,11.833 12.773,11.833 12.700 C 11.833 12.627,12.096 12.472,12.417 12.356 C 12.737 12.240,13.000 12.083,13.000 12.007 C 13.000 11.931,13.188 11.822,13.417 11.765 C 13.646 11.707,13.833 11.587,13.833 11.497 C 13.833 11.407,13.948 11.333,14.089 11.333 C 14.229 11.333,14.385 11.225,14.436 11.094 C 14.486 10.962,14.752 10.805,15.025 10.744 C 15.299 10.684,15.561 10.534,15.609 10.411 C 15.656 10.288,15.913 10.139,16.181 10.080 C 16.509 10.008,16.700 9.842,16.768 9.570 C 16.824 9.348,16.936 9.167,17.018 9.167 C 17.585 9.167,16.793 8.080,16.100 7.906 C 15.875 7.849,15.650 7.698,15.601 7.568 C 15.551 7.439,15.396 7.333,15.255 7.333 C 15.115 7.333,15.000 7.272,15.000 7.198 C 15.000 7.123,14.737 6.959,14.417 6.833 C 14.096 6.707,13.833 6.549,13.833 6.480 C 13.833 6.412,13.668 6.303,13.466 6.239 C 13.264 6.175,13.004 6.039,12.889 5.936 C 12.332 5.443,12.164 5.339,11.764 5.239 C 11.527 5.179,11.333 5.068,11.333 4.991 C 11.333 4.861,11.024 4.663,10.000 4.135 C 9.771 4.017,9.500 3.842,9.399 3.746 C 9.298 3.650,8.848 3.387,8.399 3.161 C 7.950 2.935,7.558 2.694,7.528 2.625 C 7.497 2.556,7.370 2.500,7.244 2.500 C 7.119 2.500,6.957 2.406,6.883 2.292 C 6.732 2.055,6.373 1.819,5.427 1.336 C 4.650 0.938,4.664 0.938,4.292 1.316 M73.215 1.742 C 72.533 2.519,72.969 3.389,74.117 3.540 C 74.772 3.627,75.012 3.800,75.810 4.763 C 75.892 4.862,76.016 5.124,76.085 5.346 C 76.155 5.568,76.275 5.791,76.353 5.842 C 76.877 6.180,76.868 14.169,76.344 14.493 C 76.261 14.545,76.142 14.792,76.078 15.043 C 76.015 15.295,75.897 15.500,75.815 15.500 C 75.734 15.500,75.667 15.590,75.667 15.699 C 75.667 16.052,74.783 16.833,74.385 16.833 C 74.173 16.833,74.000 16.908,74.000 17.000 C 74.000 17.092,73.783 17.167,73.518 17.167 C 72.626 17.167,72.617 18.723,73.507 18.918 C 74.059 19.040,75.500 18.857,75.500 18.666 C 75.500 18.594,75.675 18.492,75.888 18.439 C 76.316 18.331,77.167 17.609,77.167 17.353 C 77.167 17.264,77.260 17.090,77.375 16.968 C 78.107 16.185,78.833 12.831,78.833 10.236 C 78.833 8.712,78.264 4.835,78.016 4.670 C 77.944 4.623,77.832 4.368,77.767 4.105 C 77.703 3.842,77.560 3.531,77.450 3.415 C 77.340 3.299,77.108 3.008,76.935 2.768 C 76.762 2.529,76.518 2.333,76.393 2.333 C 76.269 2.333,76.167 2.264,76.167 2.179 C 76.167 1.626,73.645 1.253,73.215 1.742 M120.500 9.833 L 120.500 17.833 129.917 17.833 L 139.333 17.833 139.333 9.833 L 139.333 1.833 129.917 1.833 L 120.500 1.833 120.500 9.833 M167.792 1.944 C 167.448 1.986,167.167 2.091,167.167 2.177 C 167.167 2.263,166.985 2.333,166.762 2.333 C 166.539 2.333,166.256 2.435,166.132 2.558 C 166.009 2.682,165.646 2.869,165.326 2.975 C 164.581 3.221,162.395 5.281,162.245 5.879 C 162.182 6.129,162.070 6.333,161.995 6.333 C 161.921 6.333,161.807 6.577,161.742 6.875 C 161.678 7.173,161.540 7.470,161.437 7.536 C 161.312 7.615,161.250 8.488,161.250 10.166 C 161.250 11.845,161.312 12.718,161.437 12.798 C 161.540 12.863,161.678 13.160,161.742 13.458 C 161.807 13.756,161.920 14.000,161.993 14.000 C 162.066 14.000,162.217 14.220,162.328 14.488 C 162.440 14.756,162.636 15.017,162.765 15.066 C 162.894 15.116,163.000 15.239,163.000 15.340 C 163.000 15.653,164.440 16.833,164.823 16.833 C 164.901 16.833,165.008 16.946,165.060 17.083 C 165.113 17.221,165.271 17.333,165.411 17.333 C 165.552 17.333,165.667 17.402,165.667 17.485 C 165.667 17.569,165.985 17.691,166.375 17.756 C 166.765 17.821,167.136 17.958,167.201 18.059 C 167.362 18.315,171.532 18.316,171.849 18.061 C 171.978 17.957,172.327 17.820,172.625 17.756 C 172.923 17.692,173.167 17.571,173.167 17.487 C 173.167 17.402,173.268 17.333,173.391 17.333 C 173.515 17.333,173.789 17.183,174.000 17.000 C 174.211 16.817,174.450 16.667,174.530 16.667 C 175.290 16.667,176.495 14.555,175.833 14.382 C 175.650 14.334,175.500 14.234,175.500 14.160 C 175.500 14.087,175.275 13.977,175.000 13.917 C 174.725 13.856,174.500 13.738,174.500 13.653 C 174.500 13.347,173.975 13.510,173.577 13.939 C 173.180 14.368,171.778 15.151,171.389 15.161 C 171.282 15.164,171.165 15.255,171.129 15.364 C 171.084 15.497,170.535 15.561,169.417 15.561 C 168.298 15.561,167.749 15.497,167.705 15.364 C 167.668 15.255,167.551 15.167,167.443 15.167 C 166.808 15.167,164.667 13.630,164.667 13.174 C 164.667 13.073,164.563 12.950,164.435 12.901 C 164.308 12.852,164.115 12.461,164.006 12.031 C 163.897 11.601,163.739 11.120,163.654 10.961 C 163.469 10.613,163.447 9.167,163.627 9.167 C 163.697 9.167,163.848 8.773,163.962 8.292 C 164.076 7.810,164.244 7.392,164.335 7.361 C 164.426 7.331,164.500 7.224,164.500 7.124 C 164.500 6.970,165.681 5.782,166.586 5.025 C 166.734 4.901,167.300 4.715,167.844 4.612 C 168.388 4.508,168.833 4.366,168.833 4.295 C 168.833 4.115,169.944 4.134,170.294 4.321 C 170.453 4.405,170.940 4.565,171.375 4.676 C 171.810 4.786,172.167 4.942,172.167 5.022 C 172.167 5.101,172.260 5.169,172.375 5.171 C 172.853 5.182,173.559 6.125,173.179 6.246 C 172.989 6.306,172.833 6.411,172.833 6.478 C 172.833 6.545,172.571 6.695,172.251 6.810 C 171.230 7.179,171.203 8.314,172.209 8.552 C 172.553 8.633,172.833 8.759,172.833 8.831 C 172.833 8.903,173.171 9.013,173.583 9.075 C 173.996 9.136,174.333 9.254,174.333 9.336 C 174.333 9.418,174.596 9.534,174.917 9.594 C 175.237 9.655,175.500 9.770,175.500 9.852 C 175.500 9.933,175.671 10.000,175.880 10.000 C 176.088 10.000,176.436 10.124,176.653 10.276 C 176.964 10.493,177.111 10.511,177.354 10.359 C 177.524 10.253,177.771 10.167,177.904 10.167 C 178.082 10.167,178.177 9.856,178.261 9.000 C 178.325 8.358,178.435 7.833,178.506 7.833 C 178.577 7.833,178.689 7.121,178.754 6.250 C 178.820 5.379,178.939 4.667,179.020 4.667 C 179.101 4.667,179.167 4.404,179.167 4.083 C 179.167 3.445,177.792 3.146,177.566 3.735 C 177.516 3.864,177.285 4.018,177.051 4.077 C 176.818 4.135,176.518 4.292,176.385 4.425 C 176.068 4.741,175.500 4.736,175.500 4.417 C 175.500 4.279,175.404 4.167,175.287 4.167 C 175.170 4.167,174.889 3.956,174.662 3.698 C 174.435 3.441,174.006 3.123,173.708 2.991 C 173.410 2.860,173.167 2.705,173.167 2.647 C 173.167 2.590,172.850 2.492,172.463 2.430 C 172.076 2.368,171.715 2.245,171.660 2.156 C 171.549 1.977,168.768 1.824,167.792 1.944 M49.767 3.249 C 49.031 3.749,48.732 3.989,48.368 4.375 C 48.216 4.535,48.035 4.667,47.965 4.667 C 47.846 4.667,47.695 4.780,46.794 5.542 C 46.604 5.702,46.348 5.833,46.224 5.833 C 46.101 5.833,46.000 5.908,46.000 6.000 C 46.000 6.103,45.113 6.167,43.673 6.167 C 40.445 6.167,40.634 5.901,40.699 10.345 C 40.763 14.637,40.496 14.292,43.798 14.363 C 45.936 14.409,46.356 14.461,46.614 14.714 C 47.202 15.290,47.922 15.856,48.375 16.097 C 48.627 16.232,48.833 16.415,48.833 16.504 C 48.833 16.594,48.948 16.667,49.089 16.667 C 49.229 16.667,49.384 16.772,49.434 16.902 C 49.484 17.031,49.706 17.182,49.929 17.238 C 50.151 17.294,50.333 17.413,50.333 17.503 C 50.333 17.593,50.596 17.667,50.917 17.667 L 51.500 17.667 51.500 10.250 L 51.500 2.833 50.940 2.833 C 50.618 2.833,50.120 3.010,49.767 3.249 M69.872 3.167 C 69.675 3.350,69.452 3.500,69.377 3.500 C 69.302 3.500,69.122 3.631,68.978 3.792 C 68.833 3.952,68.504 4.233,68.247 4.417 C 67.989 4.600,67.697 4.829,67.597 4.926 C 67.498 5.023,67.285 5.152,67.125 5.212 C 66.965 5.273,66.833 5.394,66.833 5.482 C 66.833 5.569,66.608 5.690,66.333 5.750 C 66.058 5.810,65.833 5.929,65.833 6.013 C 65.833 6.099,64.847 6.167,63.595 6.167 C 60.601 6.167,60.833 5.816,60.833 10.339 C 60.833 14.703,60.560 14.333,63.781 14.334 C 66.253 14.334,66.224 14.325,67.347 15.411 C 67.493 15.552,67.693 15.667,67.792 15.667 C 67.891 15.667,67.997 15.723,68.028 15.792 C 68.102 15.958,69.279 16.833,69.428 16.833 C 69.492 16.833,69.719 17.021,69.931 17.250 C 70.886 18.281,71.662 17.676,71.680 15.887 C 71.687 15.170,71.731 14.677,71.777 14.792 C 71.880 15.046,74.000 15.085,74.000 14.833 C 74.000 14.742,74.096 14.667,74.213 14.667 C 74.535 14.667,75.443 13.776,75.586 13.319 C 75.655 13.098,75.795 12.863,75.897 12.798 C 76.246 12.575,76.139 8.199,75.765 7.419 C 74.979 5.777,72.879 4.762,72.030 5.614 C 71.768 5.877,71.747 5.806,71.701 4.494 C 71.671 3.632,71.575 3.045,71.451 2.966 C 71.072 2.726,70.230 2.832,69.872 3.167 M141.598 3.414 L 141.000 3.994 141.000 9.971 L 141.000 15.948 141.380 16.391 C 141.589 16.634,141.852 16.833,141.964 16.833 C 142.075 16.833,142.167 16.908,142.167 17.000 C 142.167 17.109,144.944 17.167,150.167 17.167 C 154.740 17.167,158.167 17.103,158.167 17.018 C 158.167 16.936,158.335 16.826,158.542 16.773 C 159.444 16.540,159.500 16.140,159.500 9.903 C 159.500 6.655,159.436 4.167,159.351 4.167 C 159.270 4.167,159.155 3.974,159.095 3.739 C 158.876 2.865,158.559 2.833,150.020 2.833 L 142.195 2.833 141.598 3.414 M182.176 3.407 C 181.791 3.816,181.705 5.760,182.056 6.111 C 182.427 6.483,184.250 6.366,184.708 5.941 C 185.176 5.507,185.403 4.000,185.000 4.000 C 184.908 4.000,184.833 3.893,184.833 3.762 C 184.833 2.926,182.874 2.664,182.176 3.407 M187.167 3.333 C 186.670 3.830,186.695 5.390,187.208 5.932 L 187.583 6.328 192.780 6.330 C 198.248 6.333,198.500 6.300,198.500 5.571 C 198.500 5.440,198.575 5.333,198.667 5.333 C 198.758 5.333,198.833 5.033,198.833 4.667 C 198.833 4.300,198.766 4.000,198.685 4.000 C 198.603 4.000,198.491 3.821,198.437 3.603 C 198.292 3.027,198.078 3.005,192.542 3.002 C 187.721 3.000,187.485 3.015,187.167 3.333 M137.667 9.917 L 137.667 16.167 130.083 16.167 L 122.500 16.167 122.500 9.917 L 122.500 3.667 130.083 3.667 L 137.667 3.667 137.667 9.917 M51.875 6.083 C 51.334 6.697,51.614 7.600,52.667 8.640 C 53.217 9.183,53.667 9.671,53.667 9.723 C 53.667 9.776,53.217 10.264,52.667 10.807 C 51.108 12.347,51.194 13.500,52.869 13.500 C 53.465 13.500,53.649 13.394,54.453 12.583 C 55.566 11.461,55.544 11.461,56.644 12.586 C 57.998 13.971,59.333 13.842,59.333 12.325 C 59.333 11.756,59.217 11.560,58.417 10.772 C 57.913 10.275,57.500 9.791,57.500 9.695 C 57.500 9.600,57.913 9.115,58.417 8.619 C 59.461 7.591,59.670 6.695,58.998 6.120 C 58.338 5.555,57.717 5.743,56.640 6.833 C 56.097 7.383,55.613 7.833,55.565 7.833 C 55.517 7.833,55.032 7.383,54.487 6.833 C 53.434 5.771,52.409 5.476,51.875 6.083 M72.418 7.333 C 73.097 7.333,74.000 8.149,74.000 8.763 C 74.000 8.985,74.075 9.167,74.167 9.167 C 74.259 9.167,74.333 9.611,74.333 10.167 C 74.333 10.722,74.259 11.167,74.167 11.167 C 74.075 11.167,74.000 11.394,74.000 11.672 C 74.000 11.967,73.896 12.217,73.750 12.273 C 73.612 12.326,73.500 12.465,73.500 12.583 C 73.500 12.836,73.133 13.000,72.570 13.000 C 72.348 13.000,72.167 13.067,72.167 13.149 C 72.167 13.231,72.054 13.341,71.917 13.394 C 71.699 13.477,71.668 13.059,71.680 10.203 C 71.687 8.396,71.731 7.010,71.777 7.125 C 71.823 7.240,72.112 7.333,72.418 7.333 M124.620 7.307 C 124.364 7.459,124.114 7.747,124.063 7.946 C 124.012 8.146,123.864 8.350,123.735 8.399 C 123.606 8.449,123.500 8.637,123.500 8.818 C 123.500 8.999,123.425 9.193,123.333 9.250 C 123.129 9.376,123.109 11.667,123.313 11.667 C 123.393 11.667,123.502 11.886,123.556 12.155 C 123.610 12.423,123.938 12.929,124.285 13.280 L 124.917 13.917 126.381 13.917 C 127.284 13.917,127.891 13.845,127.964 13.729 C 128.030 13.626,128.335 13.487,128.642 13.421 C 129.156 13.309,129.193 13.259,129.103 12.807 C 128.959 12.087,128.000 11.375,128.000 11.988 C 128.000 12.073,127.596 12.233,127.102 12.344 C 126.152 12.556,125.167 12.325,125.167 11.890 C 125.167 11.782,125.073 11.663,124.958 11.625 C 124.494 11.468,124.726 9.417,125.265 8.917 C 125.779 8.440,127.213 8.369,127.484 8.808 C 127.637 9.055,128.529 9.212,128.789 9.038 C 129.139 8.804,129.259 7.833,128.938 7.833 C 128.789 7.833,128.667 7.773,128.667 7.699 C 128.667 7.075,125.520 6.770,124.620 7.307 M131.333 7.250 C 131.219 7.388,131.029 7.500,130.911 7.500 C 130.675 7.500,130.000 8.773,130.000 9.219 C 130.000 9.374,129.925 9.500,129.833 9.500 C 129.739 9.500,129.667 9.972,129.667 10.583 C 129.667 11.179,129.732 11.667,129.813 11.667 C 129.893 11.667,130.006 11.903,130.063 12.192 C 130.121 12.482,130.446 12.988,130.786 13.317 L 131.403 13.917 132.958 13.917 C 133.965 13.917,134.555 13.848,134.633 13.722 C 134.699 13.614,134.966 13.473,135.226 13.408 C 135.749 13.277,135.769 12.578,135.264 12.074 C 134.998 11.807,134.500 11.749,134.500 11.983 C 134.500 12.212,132.905 12.545,132.468 12.408 C 131.189 12.006,130.754 9.855,131.762 8.920 C 132.279 8.440,133.712 8.368,133.984 8.808 C 134.196 9.151,135.088 9.222,135.389 8.920 C 135.740 8.570,135.758 7.833,135.417 7.833 C 135.279 7.833,135.167 7.764,135.167 7.680 C 135.167 7.596,134.942 7.477,134.667 7.417 C 134.392 7.356,134.167 7.238,134.167 7.153 C 134.167 6.879,131.567 6.968,131.333 7.250 M148.187 7.510 C 148.989 7.920,149.122 8.205,148.765 8.750 L 148.494 9.164 147.875 8.832 C 146.043 7.851,144.667 8.565,144.667 10.498 C 144.667 12.380,145.821 13.096,147.593 12.312 L 148.395 11.957 148.698 12.330 C 149.279 13.048,148.885 13.402,147.029 13.833 C 143.580 14.634,141.980 8.969,145.179 7.282 C 145.886 6.909,147.205 7.009,148.187 7.510 M155.719 7.538 C 156.933 8.206,156.630 9.337,155.394 8.750 C 153.184 7.702,151.528 9.231,152.431 11.487 C 152.913 12.692,153.875 12.966,155.260 12.293 C 156.016 11.926,156.033 11.925,156.264 12.242 C 156.835 13.022,156.440 13.385,154.536 13.830 C 152.200 14.376,150.264 11.840,151.084 9.310 C 151.771 7.190,153.728 6.441,155.719 7.538 M182.500 8.167 C 182.500 8.258,182.396 8.333,182.269 8.333 C 181.733 8.333,181.657 10.414,182.173 10.969 C 182.519 11.340,184.014 11.498,184.421 11.206 C 185.267 10.598,185.399 9.207,184.679 8.487 C 184.183 7.991,182.500 7.744,182.500 8.167 M187.500 8.147 C 187.500 8.228,187.350 8.334,187.167 8.382 C 186.650 8.517,186.681 10.375,187.208 10.932 L 187.583 11.328 192.583 11.328 C 198.075 11.329,198.292 11.307,198.437 10.730 C 198.491 10.512,198.603 10.333,198.685 10.333 C 198.766 10.333,198.833 10.033,198.833 9.667 C 198.833 9.300,198.758 9.000,198.667 9.000 C 198.575 9.000,198.500 8.904,198.500 8.787 C 198.500 8.055,198.094 8.000,192.665 8.000 C 189.787 8.000,187.500 8.065,187.500 8.147 M80.875 11.083 C 80.516 11.490,80.585 17.568,80.954 17.998 C 81.224 18.314,81.440 18.333,84.704 18.333 L 88.167 18.333 88.167 17.908 C 88.167 17.576,87.430 16.748,84.828 14.158 C 81.472 10.816,81.257 10.649,80.875 11.083 M98.333 11.000 C 98.333 11.092,98.230 11.167,98.105 11.167 C 97.802 11.167,91.833 17.129,91.833 17.432 C 91.833 17.561,91.758 17.667,91.667 17.667 C 91.575 17.667,91.500 17.817,91.500 18.000 C 91.500 18.405,98.402 18.531,98.800 18.133 C 99.114 17.819,99.079 11.389,98.762 11.071 C 98.483 10.792,98.333 10.767,98.333 11.000 M100.667 12.268 C 100.667 12.968,105.619 17.833,106.333 17.833 L 106.856 17.833 106.803 15.113 C 106.734 11.584,106.991 11.833,103.429 11.833 L 100.667 11.833 100.667 12.268 M112.776 12.138 C 112.543 12.395,112.500 12.864,112.500 15.138 L 112.500 17.833 113.008 17.833 C 113.519 17.833,118.667 12.975,118.667 12.493 C 118.667 11.757,113.408 11.440,112.776 12.138 M182.125 13.316 C 181.769 13.677,181.717 15.444,182.050 15.899 C 182.524 16.547,184.617 16.477,184.792 15.807 C 184.836 15.638,184.938 15.500,185.019 15.500 C 185.420 15.500,185.161 13.969,184.679 13.487 C 184.084 12.892,182.639 12.795,182.125 13.316 M187.125 13.316 C 186.832 13.613,186.709 15.148,186.931 15.728 C 187.180 16.377,188.432 16.527,193.121 16.470 C 197.906 16.413,198.234 16.355,198.441 15.542 C 198.493 15.335,198.603 15.167,198.685 15.167 C 198.766 15.167,198.833 14.904,198.833 14.583 C 198.833 14.262,198.758 14.000,198.667 14.000 C 198.575 14.000,198.500 13.904,198.500 13.787 C 198.500 13.670,198.349 13.445,198.165 13.287 C 197.646 12.843,187.565 12.869,187.125 13.316 M37.333 38.808 C 37.333 38.886,36.380 39.000,35.215 39.062 C 34.051 39.125,33.057 39.236,33.007 39.310 C 32.957 39.384,32.243 39.537,31.420 39.651 C 30.596 39.764,29.839 39.926,29.736 40.011 C 29.634 40.097,29.201 40.214,28.775 40.272 C 28.349 40.331,28.000 40.435,28.000 40.504 C 28.000 40.573,27.662 40.679,27.250 40.741 C 26.837 40.803,26.500 40.924,26.500 41.010 C 26.500 41.096,26.383 41.167,26.241 41.167 C 26.098 41.167,25.664 41.311,25.277 41.488 C 24.889 41.664,24.368 41.860,24.119 41.923 C 23.870 41.985,23.667 42.095,23.667 42.166 C 23.667 42.238,23.404 42.345,23.083 42.406 C 22.762 42.466,22.500 42.581,22.500 42.661 C 22.500 42.741,22.275 42.856,22.000 42.917 C 21.725 42.977,21.500 43.090,21.500 43.167 C 21.500 43.244,21.270 43.357,20.989 43.419 C 20.708 43.481,20.440 43.630,20.393 43.751 C 20.347 43.871,20.121 44.017,19.890 44.075 C 19.496 44.174,19.322 44.284,18.756 44.792 C 18.628 44.906,18.449 45.000,18.357 45.000 C 18.265 45.000,18.091 45.094,17.970 45.208 C 17.849 45.323,17.554 45.518,17.314 45.641 C 17.075 45.764,16.700 46.031,16.481 46.233 C 16.262 46.435,15.952 46.651,15.792 46.712 C 15.631 46.773,15.500 46.895,15.500 46.984 C 15.500 47.072,15.365 47.187,15.199 47.240 C 15.034 47.292,14.640 47.595,14.324 47.912 C 14.009 48.230,13.697 48.492,13.631 48.495 C 13.476 48.502,9.500 52.426,9.500 52.573 C 9.500 52.634,9.275 52.924,9.001 53.217 C 8.726 53.510,8.501 53.800,8.501 53.862 C 8.500 53.924,8.293 54.186,8.041 54.446 C 7.591 54.908,6.667 56.235,6.667 56.420 C 6.667 56.472,6.590 56.605,6.497 56.715 C 5.819 57.519,5.667 57.744,5.667 57.942 C 5.667 58.066,5.606 58.167,5.531 58.167 C 5.457 58.167,5.293 58.429,5.167 58.750 C 5.041 59.071,4.883 59.333,4.815 59.333 C 4.748 59.333,4.644 59.558,4.583 59.833 C 4.523 60.108,4.413 60.333,4.338 60.333 C 4.264 60.333,4.156 60.521,4.098 60.750 C 4.041 60.979,3.926 61.167,3.843 61.167 C 3.761 61.167,3.644 61.392,3.583 61.667 C 3.523 61.942,3.412 62.167,3.337 62.167 C 3.261 62.167,3.110 62.542,3.000 63.000 C 2.890 63.458,2.733 63.833,2.650 63.833 C 2.568 63.833,2.500 64.004,2.500 64.213 C 2.500 64.422,2.394 64.744,2.264 64.930 C 2.134 65.115,1.975 65.544,1.912 65.884 C 1.848 66.223,1.737 66.500,1.664 66.500 C 1.591 66.500,1.480 66.875,1.417 67.333 C 1.354 67.791,1.242 68.203,1.168 68.249 C 1.095 68.294,0.939 68.988,0.821 69.791 C 0.704 70.593,0.554 71.287,0.489 71.333 C -0.125 71.761,-0.118 85.929,0.496 86.333 C 0.565 86.379,0.677 86.942,0.743 87.583 C 0.809 88.225,0.964 88.975,1.086 89.250 C 1.209 89.525,1.359 90.069,1.419 90.458 C 1.480 90.848,1.593 91.167,1.671 91.167 C 1.749 91.167,1.864 91.504,1.925 91.917 C 1.987 92.329,2.096 92.667,2.167 92.667 C 2.238 92.667,2.345 92.929,2.406 93.250 C 2.466 93.571,2.573 93.833,2.643 93.833 C 2.713 93.833,2.866 94.208,2.984 94.667 C 3.101 95.125,3.257 95.500,3.330 95.500 C 3.403 95.500,3.512 95.763,3.572 96.083 C 3.633 96.404,3.747 96.667,3.828 96.667 C 3.908 96.667,4.022 96.885,4.080 97.153 C 4.139 97.420,4.295 97.680,4.427 97.731 C 4.559 97.781,4.667 97.938,4.667 98.078 C 4.667 98.218,4.730 98.333,4.807 98.333 C 4.884 98.333,5.034 98.624,5.141 98.980 C 5.248 99.336,5.447 99.720,5.584 99.834 C 5.721 99.948,5.833 100.138,5.833 100.257 C 5.833 100.375,5.890 100.497,5.958 100.528 C 6.124 100.601,6.744 101.507,6.881 101.875 C 6.941 102.035,7.067 102.167,7.161 102.167 C 7.256 102.167,7.333 102.268,7.333 102.391 C 7.333 102.514,7.483 102.751,7.667 102.917 C 7.850 103.083,8.003 103.300,8.007 103.401 C 8.011 103.501,8.236 103.767,8.507 103.992 C 8.778 104.217,9.000 104.463,9.000 104.539 C 9.000 104.734,13.911 109.667,14.105 109.667 C 14.193 109.667,14.450 109.888,14.674 110.160 C 14.899 110.431,15.165 110.656,15.266 110.660 C 15.366 110.663,15.584 110.817,15.750 111.000 C 15.916 111.183,16.136 111.333,16.239 111.333 C 16.342 111.333,16.547 111.465,16.694 111.625 C 17.103 112.070,17.712 112.500,17.933 112.500 C 18.042 112.500,18.171 112.605,18.221 112.734 C 18.270 112.863,18.535 113.018,18.808 113.078 C 19.082 113.138,19.347 113.295,19.398 113.427 C 19.448 113.559,19.604 113.667,19.745 113.667 C 19.885 113.667,20.000 113.736,20.000 113.820 C 20.000 113.904,20.225 114.023,20.500 114.083 C 20.775 114.144,21.000 114.256,21.000 114.333 C 21.000 114.410,21.225 114.523,21.500 114.583 C 21.775 114.644,22.000 114.750,22.000 114.820 C 22.000 114.890,22.300 115.037,22.667 115.147 C 23.033 115.257,23.333 115.419,23.333 115.507 C 23.333 115.595,23.412 115.667,23.509 115.667 C 23.681 115.667,24.995 116.206,25.508 116.486 C 25.650 116.564,26.194 116.724,26.717 116.840 C 27.239 116.957,27.667 117.109,27.667 117.178 C 27.667 117.246,28.042 117.354,28.500 117.417 C 28.958 117.480,29.372 117.594,29.419 117.671 C 29.466 117.747,29.917 117.861,30.419 117.924 C 30.922 117.987,31.333 118.098,31.333 118.172 C 31.333 118.245,31.915 118.352,32.625 118.410 C 33.335 118.468,34.067 118.599,34.250 118.702 C 34.712 118.960,42.517 119.078,44.333 118.854 C 47.025 118.523,48.251 118.322,48.527 118.169 C 48.680 118.085,49.186 117.965,49.652 117.903 C 50.118 117.841,50.500 117.735,50.500 117.667 C 50.500 117.599,50.875 117.493,51.333 117.432 C 51.792 117.372,52.167 117.258,52.167 117.180 C 52.167 117.102,52.654 116.946,53.250 116.833 C 53.846 116.721,54.333 116.571,54.333 116.500 C 54.333 116.429,54.596 116.321,54.917 116.261 C 55.237 116.201,55.500 116.083,55.500 116.000 C 55.500 115.917,55.762 115.799,56.083 115.739 C 56.404 115.679,56.667 115.563,56.667 115.481 C 56.667 115.400,56.758 115.333,56.869 115.333 C 57.189 115.333,59.833 114.000,59.833 113.839 C 59.833 113.759,60.058 113.644,60.333 113.583 C 60.608 113.523,60.833 113.411,60.833 113.335 C 60.833 113.259,61.179 113.029,61.602 112.824 C 62.025 112.620,62.590 112.238,62.858 111.976 C 63.126 111.714,63.402 111.500,63.472 111.500 C 63.612 111.500,64.136 111.119,64.790 110.542 C 65.024 110.335,65.265 110.167,65.325 110.167 C 65.385 110.167,65.781 109.829,66.206 109.417 C 66.630 109.004,67.027 108.667,67.089 108.667 C 67.229 108.667,70.000 105.885,70.000 105.744 C 70.000 105.687,70.300 105.344,70.667 104.980 C 71.033 104.617,71.333 104.251,71.333 104.166 C 71.333 104.081,71.557 103.765,71.830 103.464 C 72.696 102.512,72.833 102.337,72.833 102.192 C 72.833 102.115,72.982 101.871,73.164 101.651 C 73.747 100.943,74.038 100.503,74.449 99.708 C 74.602 99.410,74.784 99.167,74.851 99.167 C 74.918 99.167,75.023 98.942,75.083 98.667 C 75.144 98.392,75.256 98.167,75.333 98.167 C 75.410 98.167,75.523 97.942,75.583 97.667 C 75.644 97.392,75.756 97.167,75.833 97.167 C 75.910 97.167,76.023 96.942,76.083 96.667 C 76.144 96.392,76.250 96.167,76.320 96.167 C 76.390 96.167,76.546 95.867,76.667 95.500 C 76.788 95.133,76.950 94.833,77.027 94.833 C 77.104 94.833,77.167 94.663,77.167 94.454 C 77.167 94.245,77.273 93.922,77.403 93.737 C 77.533 93.551,77.691 93.122,77.755 92.783 C 77.818 92.444,77.927 92.167,77.997 92.167 C 78.066 92.167,78.211 91.719,78.319 91.172 C 78.427 90.625,78.579 90.138,78.658 90.089 C 78.736 90.040,78.853 89.550,78.917 89.000 C 78.980 88.450,79.093 88.000,79.166 88.000 C 79.239 88.000,79.352 87.475,79.417 86.833 C 79.481 86.192,79.601 85.667,79.684 85.667 C 79.766 85.667,79.839 85.273,79.846 84.792 C 79.854 84.310,79.902 84.029,79.955 84.167 C 80.007 84.304,80.099 84.454,80.158 84.500 C 80.218 84.546,80.363 85.370,80.480 86.333 C 80.598 87.295,80.754 88.157,80.828 88.249 C 80.902 88.341,81.016 88.810,81.080 89.292 C 81.145 89.773,81.257 90.167,81.330 90.167 C 81.403 90.167,81.513 90.504,81.575 90.917 C 81.636 91.329,81.753 91.667,81.833 91.667 C 81.914 91.667,82.030 92.004,82.092 92.417 C 82.154 92.829,82.265 93.167,82.339 93.167 C 82.413 93.167,82.524 93.410,82.586 93.708 C 82.649 94.006,82.795 94.401,82.911 94.586 C 83.028 94.770,83.176 95.164,83.241 95.461 C 83.307 95.757,83.423 96.000,83.500 96.000 C 83.577 96.000,83.690 96.225,83.750 96.500 C 83.810 96.775,83.929 97.000,84.013 97.000 C 84.098 97.000,84.167 97.107,84.167 97.238 C 84.167 97.369,84.260 97.577,84.375 97.701 C 84.490 97.824,84.768 98.290,84.994 98.737 C 85.220 99.183,85.484 99.631,85.579 99.732 C 85.675 99.834,85.850 100.104,85.968 100.333 C 86.505 101.376,86.696 101.667,86.842 101.667 C 86.929 101.667,87.000 101.780,87.000 101.918 C 87.000 102.057,87.150 102.298,87.333 102.455 C 87.517 102.612,87.667 102.803,87.667 102.878 C 87.667 102.954,87.843 103.181,88.058 103.383 C 88.273 103.585,88.479 103.833,88.516 103.936 C 88.703 104.451,93.189 109.167,93.493 109.167 C 93.580 109.167,93.906 109.429,94.217 109.750 C 94.529 110.071,94.870 110.333,94.975 110.333 C 95.080 110.333,95.167 110.406,95.167 110.496 C 95.167 110.585,95.373 110.768,95.625 110.903 C 95.877 111.037,96.308 111.338,96.583 111.570 C 97.369 112.235,97.776 112.510,98.625 112.949 C 98.923 113.102,99.167 113.290,99.167 113.364 C 99.167 113.439,99.274 113.500,99.405 113.500 C 99.536 113.500,99.742 113.595,99.863 113.711 C 100.155 113.990,102.859 115.336,103.125 115.335 C 103.240 115.334,103.333 115.405,103.333 115.492 C 103.333 115.580,103.596 115.701,103.917 115.761 C 104.237 115.821,104.500 115.934,104.500 116.011 C 104.500 116.088,104.763 116.201,105.083 116.261 C 105.404 116.321,105.667 116.429,105.667 116.500 C 105.667 116.622,106.064 116.731,107.292 116.943 C 107.590 116.994,107.833 117.099,107.833 117.175 C 107.833 117.251,108.171 117.364,108.583 117.425 C 108.996 117.487,109.333 117.598,109.333 117.672 C 109.333 117.746,109.821 117.859,110.417 117.923 C 111.013 117.987,111.500 118.099,111.500 118.172 C 111.500 118.245,112.081 118.359,112.792 118.424 C 113.502 118.490,114.137 118.628,114.202 118.730 C 114.371 118.994,125.354 118.993,125.683 118.728 C 125.811 118.625,126.498 118.487,127.208 118.422 C 127.919 118.358,128.500 118.245,128.500 118.172 C 128.500 118.099,128.987 117.987,129.583 117.923 C 130.179 117.859,130.667 117.740,130.667 117.659 C 130.667 117.578,131.042 117.462,131.500 117.401 C 131.958 117.340,132.333 117.232,132.333 117.160 C 132.333 117.088,132.652 116.978,133.042 116.915 C 133.431 116.853,133.901 116.706,134.086 116.589 C 134.270 116.473,134.664 116.324,134.961 116.259 C 135.257 116.193,135.500 116.079,135.500 116.005 C 135.500 115.931,135.762 115.821,136.083 115.761 C 136.404 115.701,136.667 115.580,136.667 115.492 C 136.667 115.405,136.759 115.333,136.873 115.333 C 137.105 115.333,138.870 114.482,139.002 114.307 C 139.048 114.244,139.287 114.143,139.531 114.082 C 139.776 114.020,140.016 113.864,140.066 113.735 C 140.116 113.606,140.265 113.500,140.398 113.500 C 140.530 113.500,140.664 113.444,140.694 113.375 C 140.725 113.306,141.179 113.029,141.703 112.759 C 142.227 112.488,142.694 112.170,142.740 112.050 C 142.785 111.931,142.903 111.833,143.002 111.833 C 143.100 111.833,143.271 111.759,143.382 111.669 C 144.288 110.931,144.648 110.667,144.752 110.667 C 144.818 110.667,145.163 110.367,145.519 110.000 C 145.875 109.633,146.231 109.333,146.311 109.333 C 146.439 109.333,147.599 108.239,148.366 107.395 C 148.522 107.223,149.066 106.674,149.575 106.173 C 150.084 105.672,150.500 105.203,150.500 105.131 C 150.500 105.059,150.800 104.708,151.167 104.353 C 151.533 103.997,151.833 103.651,151.833 103.585 C 151.833 103.519,152.022 103.229,152.253 102.941 C 152.483 102.652,152.731 102.342,152.803 102.250 C 152.875 102.158,152.984 101.952,153.045 101.792 C 153.106 101.631,153.217 101.500,153.292 101.500 C 153.367 101.500,153.651 101.071,153.923 100.547 C 154.194 100.024,154.492 99.501,154.583 99.387 C 154.675 99.272,154.835 99.076,154.938 98.951 C 155.041 98.827,155.183 98.543,155.252 98.321 C 155.321 98.098,155.433 97.879,155.500 97.833 C 155.665 97.720,156.500 95.933,156.500 95.692 C 156.500 95.587,156.572 95.500,156.659 95.500 C 156.747 95.500,156.867 95.237,156.928 94.917 C 156.988 94.596,157.100 94.333,157.178 94.333 C 157.255 94.333,157.367 94.071,157.428 93.750 C 157.488 93.429,157.600 93.167,157.677 93.167 C 157.754 93.167,157.905 92.717,158.013 92.167 C 158.122 91.617,158.266 91.167,158.334 91.167 C 158.401 91.167,158.507 90.792,158.568 90.333 C 158.628 89.875,158.745 89.500,158.826 89.500 C 158.907 89.500,159.026 89.013,159.089 88.417 C 159.153 87.821,159.265 87.333,159.339 87.333 C 159.412 87.333,159.525 86.752,159.591 86.042 C 159.657 85.331,159.794 84.696,159.897 84.631 C 160.161 84.463,160.159 73.479,159.895 73.151 C 159.791 73.022,159.654 72.335,159.589 71.625 C 159.524 70.915,159.412 70.333,159.338 70.333 C 159.265 70.333,159.154 69.921,159.091 69.417 C 159.028 68.912,158.916 68.500,158.843 68.500 C 158.770 68.500,158.660 68.128,158.600 67.674 C 158.540 67.219,158.428 66.809,158.352 66.762 C 158.276 66.715,158.118 66.224,158.001 65.672 C 157.884 65.119,157.733 64.667,157.665 64.667 C 157.598 64.667,157.495 64.367,157.436 64.000 C 157.377 63.633,157.259 63.333,157.172 63.333 C 157.086 63.333,156.966 63.071,156.906 62.750 C 156.845 62.429,156.738 62.167,156.666 62.167 C 156.595 62.167,156.485 61.960,156.422 61.708 C 156.359 61.456,156.210 61.137,156.090 61.000 C 155.971 60.862,155.816 60.563,155.747 60.333 C 155.678 60.104,155.576 59.879,155.519 59.833 C 155.383 59.723,155.046 59.182,154.792 58.667 C 154.680 58.438,154.493 58.151,154.377 58.030 C 154.261 57.909,154.167 57.708,154.167 57.583 C 154.167 57.459,154.073 57.256,153.958 57.132 C 153.631 56.779,153.000 55.859,153.000 55.734 C 153.000 55.672,152.813 55.448,152.583 55.235 C 152.354 55.023,152.167 54.779,152.167 54.692 C 152.167 54.606,151.980 54.358,151.753 54.142 C 151.525 53.927,151.338 53.701,151.336 53.640 C 151.330 53.396,146.981 48.833,146.754 48.833 C 146.677 48.833,146.419 48.622,146.182 48.365 C 145.944 48.107,145.487 47.717,145.167 47.498 C 144.846 47.279,144.523 47.003,144.450 46.883 C 144.377 46.764,144.208 46.667,144.075 46.667 C 143.942 46.667,143.833 46.589,143.833 46.495 C 143.833 46.400,143.702 46.273,143.542 46.212 C 143.381 46.150,143.105 45.965,142.927 45.800 C 142.749 45.635,142.505 45.500,142.385 45.500 C 142.265 45.500,142.167 45.425,142.167 45.333 C 142.167 45.242,142.052 45.167,141.911 45.167 C 141.771 45.167,141.613 45.054,141.560 44.917 C 141.508 44.779,141.365 44.667,141.244 44.667 C 141.123 44.667,140.924 44.573,140.802 44.458 C 140.680 44.344,140.131 44.025,139.582 43.750 C 139.033 43.475,138.546 43.212,138.500 43.167 C 138.330 42.997,137.235 42.508,136.792 42.404 C 136.540 42.345,136.333 42.233,136.333 42.155 C 136.333 42.077,136.015 41.922,135.625 41.811 C 135.235 41.699,134.842 41.555,134.750 41.490 C 134.658 41.425,134.340 41.320,134.042 41.256 C 133.744 41.192,133.500 41.078,133.500 41.001 C 133.500 40.925,133.200 40.812,132.834 40.750 C 132.468 40.688,132.130 40.576,132.084 40.501 C 132.038 40.426,131.625 40.313,131.166 40.250 C 130.708 40.187,130.333 40.081,130.333 40.014 C 130.333 39.947,129.602 39.793,128.708 39.672 C 127.815 39.551,127.043 39.389,126.993 39.313 C 126.943 39.238,125.949 39.125,124.785 39.062 C 123.620 39.000,122.667 38.886,122.667 38.808 C 122.667 38.730,121.429 38.667,119.917 38.667 C 118.404 38.667,117.167 38.730,117.167 38.808 C 117.167 38.886,116.285 38.999,115.208 39.061 C 114.131 39.122,113.225 39.246,113.194 39.336 C 113.164 39.426,112.916 39.500,112.643 39.500 C 111.883 39.500,109.833 39.867,109.833 40.003 C 109.833 40.069,109.458 40.173,109.000 40.234 C 108.542 40.295,108.167 40.407,108.167 40.484 C 108.167 40.560,107.856 40.664,107.476 40.715 C 107.096 40.766,106.738 40.885,106.679 40.980 C 106.621 41.074,106.257 41.202,105.870 41.263 C 105.483 41.325,105.167 41.434,105.167 41.505 C 105.167 41.575,104.792 41.723,104.333 41.833 C 103.875 41.943,103.498 42.082,103.497 42.142 C 103.495 42.201,103.084 42.438,102.583 42.667 C 102.083 42.896,101.672 43.130,101.670 43.187 C 101.668 43.244,101.329 43.385,100.917 43.500 C 100.504 43.615,100.167 43.775,100.167 43.855 C 100.167 43.935,100.052 44.000,99.911 44.000 C 99.771 44.000,99.615 44.108,99.564 44.240 C 99.514 44.372,99.260 44.526,99.000 44.583 C 98.740 44.640,98.486 44.795,98.436 44.927 C 98.385 45.059,98.229 45.167,98.089 45.167 C 97.948 45.167,97.833 45.234,97.833 45.317 C 97.833 45.400,97.608 45.546,97.333 45.642 C 97.058 45.738,96.833 45.895,96.833 45.991 C 96.833 46.088,96.718 46.167,96.578 46.167 C 96.438 46.167,96.281 46.276,96.229 46.410 C 96.178 46.544,95.982 46.703,95.794 46.763 C 95.606 46.822,95.240 47.088,94.982 47.352 C 94.723 47.617,94.458 47.833,94.394 47.833 C 94.329 47.833,93.953 48.171,93.558 48.583 C 93.162 48.996,92.775 49.333,92.698 49.333 C 92.505 49.333,90.552 51.415,88.415 53.899 C 88.187 54.165,88.000 54.450,88.000 54.532 C 88.000 54.615,87.830 54.848,87.621 55.050 C 87.189 55.469,86.333 56.750,86.333 56.979 C 86.333 57.062,86.221 57.174,86.083 57.227 C 85.946 57.280,85.833 57.438,85.833 57.578 C 85.833 57.718,85.760 57.833,85.670 57.833 C 85.580 57.833,85.459 58.021,85.402 58.250 C 85.344 58.479,85.245 58.667,85.182 58.667 C 85.119 58.667,84.966 58.945,84.843 59.286 C 84.720 59.626,84.518 60.006,84.393 60.131 C 84.269 60.255,84.167 60.464,84.167 60.595 C 84.167 60.726,84.100 60.833,84.019 60.833 C 83.937 60.833,83.821 61.096,83.761 61.417 C 83.701 61.737,83.588 62.000,83.511 62.000 C 83.433 62.000,83.320 62.197,83.260 62.437 C 83.200 62.677,83.050 62.973,82.929 63.095 C 82.807 63.217,82.656 63.658,82.593 64.075 C 82.531 64.492,82.413 64.833,82.331 64.833 C 82.249 64.833,82.133 65.096,82.072 65.417 C 82.012 65.737,81.903 66.000,81.830 66.000 C 81.758 66.000,81.646 66.375,81.583 66.833 C 81.520 67.292,81.413 67.667,81.346 67.667 C 81.142 67.667,80.356 71.665,80.342 72.774 C 80.336 73.228,80.248 73.497,80.083 73.560 C 79.884 73.637,79.833 73.506,79.833 72.921 C 79.833 72.517,79.766 72.145,79.684 72.094 C 79.601 72.043,79.481 71.476,79.417 70.834 C 79.352 70.192,79.239 69.667,79.166 69.667 C 79.093 69.667,78.981 69.217,78.917 68.667 C 78.853 68.117,78.745 67.667,78.677 67.667 C 78.609 67.667,78.458 67.235,78.341 66.708 C 78.225 66.181,78.070 65.675,77.996 65.583 C 77.923 65.492,77.811 65.135,77.746 64.792 C 77.682 64.448,77.569 64.167,77.495 64.167 C 77.421 64.167,77.310 63.942,77.250 63.667 C 77.190 63.392,77.085 63.167,77.018 63.167 C 76.951 63.167,76.800 62.792,76.683 62.333 C 76.565 61.875,76.407 61.500,76.331 61.500 C 76.255 61.500,76.144 61.275,76.083 61.000 C 76.023 60.725,75.913 60.500,75.838 60.500 C 75.764 60.500,75.653 60.303,75.593 60.063 C 75.533 59.823,75.393 59.526,75.283 59.402 C 74.780 58.839,74.673 58.667,74.571 58.262 C 74.512 58.024,74.376 57.774,74.270 57.706 C 74.163 57.639,73.985 57.396,73.873 57.167 C 73.599 56.608,73.312 56.172,72.946 55.759 C 72.778 55.571,72.518 55.210,72.368 54.958 C 72.218 54.706,72.036 54.500,71.964 54.500 C 71.892 54.500,71.833 54.403,71.833 54.284 C 71.833 54.165,71.612 53.884,71.340 53.659 C 71.069 53.434,70.844 53.175,70.840 53.083 C 70.834 52.929,69.618 51.610,68.896 50.974 C 68.724 50.823,68.347 50.448,68.058 50.141 C 67.359 49.397,65.833 47.998,65.271 47.583 C 65.022 47.400,64.600 47.050,64.334 46.806 C 64.068 46.561,63.697 46.312,63.509 46.253 C 63.320 46.193,63.167 46.072,63.167 45.984 C 63.167 45.895,63.035 45.774,62.875 45.714 C 62.602 45.613,61.686 45.023,61.500 44.830 C 61.454 44.782,61.229 44.652,61.000 44.539 C 60.493 44.292,59.946 43.952,59.833 43.816 C 59.788 43.760,59.469 43.623,59.125 43.511 C 58.781 43.399,58.500 43.244,58.500 43.167 C 58.500 43.090,58.275 42.977,58.000 42.917 C 57.725 42.856,57.500 42.744,57.500 42.667 C 57.500 42.590,57.275 42.477,57.000 42.417 C 56.725 42.356,56.500 42.245,56.500 42.170 C 56.500 42.095,56.125 41.943,55.667 41.833 C 55.208 41.723,54.833 41.570,54.833 41.494 C 54.833 41.417,54.496 41.303,54.083 41.241 C 53.671 41.179,53.333 41.069,53.333 40.996 C 53.333 40.923,53.033 40.812,52.667 40.750 C 52.300 40.688,52.000 40.577,52.000 40.504 C 52.000 40.431,51.644 40.318,51.208 40.253 C 50.773 40.189,50.338 40.071,50.242 39.992 C 50.146 39.913,49.358 39.756,48.492 39.643 C 47.626 39.530,46.877 39.381,46.829 39.311 C 46.781 39.242,45.862 39.132,44.787 39.068 C 43.713 39.004,42.833 38.887,42.833 38.809 C 42.833 38.731,41.596 38.667,40.083 38.667 C 38.571 38.667,37.333 38.730,37.333 38.808 M200.260 38.818 C 200.208 38.901,199.791 39.020,199.333 39.083 C 198.875 39.146,198.500 39.260,198.500 39.336 C 198.500 39.412,198.249 39.557,197.941 39.659 C 197.290 39.873,196.431 40.571,195.245 41.847 C 195.110 41.993,195.000 42.199,195.000 42.306 C 195.000 42.413,194.926 42.500,194.837 42.500 C 194.747 42.500,194.626 42.688,194.568 42.917 C 194.511 43.146,194.406 43.333,194.335 43.333 C 194.179 43.333,193.833 44.647,193.833 45.240 C 193.833 45.475,193.758 45.667,193.667 45.667 C 193.569 45.667,193.500 46.250,193.500 47.083 C 193.500 47.862,193.558 48.500,193.629 48.500 C 193.699 48.500,193.845 48.962,193.952 49.526 C 194.059 50.090,194.220 50.597,194.310 50.652 C 194.400 50.708,194.524 50.953,194.585 51.198 C 194.647 51.442,194.802 51.683,194.932 51.733 C 195.061 51.782,195.167 51.906,195.167 52.008 C 195.167 52.253,196.743 53.833,196.987 53.833 C 197.092 53.833,197.218 53.939,197.267 54.068 C 197.317 54.198,197.558 54.353,197.802 54.415 C 198.047 54.476,198.289 54.595,198.340 54.678 C 198.733 55.313,205.500 55.293,205.500 54.657 C 205.500 54.585,205.719 54.478,205.986 54.420 C 206.253 54.361,206.514 54.205,206.564 54.073 C 206.615 53.941,206.737 53.833,206.836 53.833 C 207.070 53.833,208.566 52.337,208.711 51.958 C 208.773 51.798,208.894 51.667,208.982 51.667 C 209.069 51.667,209.190 51.442,209.250 51.167 C 209.310 50.892,209.420 50.667,209.493 50.667 C 209.673 50.667,210.000 49.329,210.000 48.593 C 210.000 48.267,210.075 48.000,210.167 48.000 C 210.373 48.000,210.388 46.268,210.185 45.873 C 210.103 45.714,209.946 45.096,209.836 44.501 C 209.726 43.905,209.578 43.380,209.507 43.334 C 209.436 43.288,209.326 43.081,209.261 42.875 C 209.197 42.669,209.074 42.500,208.989 42.500 C 208.903 42.500,208.833 42.422,208.833 42.326 C 208.833 42.091,206.920 40.167,206.686 40.167 C 206.584 40.167,206.500 40.105,206.500 40.030 C 206.500 39.835,204.968 39.168,204.257 39.052 C 203.928 38.999,203.618 38.890,203.569 38.811 C 203.451 38.618,200.379 38.625,200.260 38.818 M43.500 44.309 C 43.500 44.388,44.192 44.504,45.037 44.568 C 45.883 44.632,46.614 44.741,46.662 44.810 C 46.711 44.880,47.346 45.027,48.075 45.138 C 48.804 45.249,49.442 45.406,49.492 45.487 C 49.542 45.568,49.940 45.687,50.375 45.753 C 50.810 45.818,51.167 45.937,51.167 46.017 C 51.167 46.097,51.467 46.211,51.833 46.269 C 52.200 46.328,52.500 46.438,52.500 46.514 C 52.500 46.590,52.762 46.701,53.083 46.761 C 53.404 46.821,53.667 46.937,53.667 47.019 C 53.667 47.100,53.760 47.167,53.875 47.167 C 54.087 47.167,56.848 48.504,57.000 48.680 C 57.046 48.733,57.327 48.883,57.625 49.012 C 57.923 49.142,58.167 49.305,58.167 49.374 C 58.167 49.443,58.245 49.500,58.340 49.500 C 58.537 49.500,59.555 50.185,59.639 50.375 C 59.669 50.444,59.803 50.500,59.936 50.500 C 60.069 50.500,60.219 50.610,60.271 50.744 C 60.322 50.878,60.506 51.032,60.680 51.087 C 60.853 51.143,61.216 51.408,61.485 51.677 C 61.754 51.946,62.036 52.167,62.112 52.167 C 62.303 52.168,66.833 56.745,66.833 56.937 C 66.833 57.023,67.048 57.281,67.311 57.512 C 67.574 57.742,67.842 58.097,67.906 58.299 C 67.970 58.501,68.094 58.667,68.182 58.667 C 68.270 58.667,68.413 58.854,68.500 59.083 C 68.587 59.313,68.727 59.500,68.811 59.500 C 68.895 59.500,69.011 59.688,69.068 59.917 C 69.126 60.146,69.247 60.333,69.337 60.333 C 69.426 60.333,69.500 60.434,69.500 60.558 C 69.500 60.681,69.650 60.955,69.833 61.167 C 70.017 61.378,70.167 61.646,70.167 61.762 C 70.167 61.877,70.223 61.997,70.292 62.028 C 70.452 62.099,71.333 63.888,71.333 64.142 C 71.333 64.247,71.402 64.333,71.487 64.333 C 71.571 64.333,71.690 64.558,71.750 64.833 C 71.810 65.108,71.921 65.333,71.995 65.333 C 72.069 65.333,72.179 65.596,72.239 65.917 C 72.299 66.237,72.410 66.500,72.486 66.500 C 72.561 66.500,72.711 66.948,72.819 67.495 C 72.927 68.042,73.084 68.532,73.169 68.585 C 73.254 68.637,73.373 69.052,73.433 69.507 C 73.494 69.961,73.599 70.333,73.667 70.333 C 73.735 70.333,73.842 70.725,73.906 71.204 C 73.969 71.683,74.084 72.152,74.161 72.246 C 74.770 72.994,74.771 85.500,74.161 85.500 C 74.094 85.500,73.987 85.987,73.923 86.583 C 73.859 87.179,73.740 87.667,73.659 87.667 C 73.578 87.667,73.462 88.042,73.401 88.500 C 73.340 88.958,73.237 89.333,73.172 89.333 C 73.107 89.333,72.954 89.746,72.833 90.250 C 72.712 90.754,72.559 91.167,72.492 91.167 C 72.425 91.167,72.321 91.429,72.261 91.750 C 72.201 92.071,72.083 92.333,72.000 92.333 C 71.917 92.333,71.796 92.613,71.732 92.954 C 71.668 93.296,71.515 93.676,71.391 93.799 C 71.268 93.923,71.167 94.131,71.167 94.262 C 71.167 94.393,71.104 94.500,71.027 94.500 C 70.950 94.500,70.788 94.800,70.667 95.167 C 70.546 95.533,70.389 95.833,70.318 95.833 C 70.247 95.833,70.137 95.999,70.073 96.201 C 70.008 96.403,69.853 96.670,69.728 96.796 C 69.603 96.921,69.500 97.131,69.500 97.262 C 69.500 97.393,69.423 97.500,69.329 97.500 C 69.235 97.500,69.087 97.688,69.000 97.917 C 68.913 98.146,68.773 98.333,68.689 98.333 C 68.605 98.333,68.489 98.521,68.432 98.750 C 68.374 98.979,68.253 99.167,68.163 99.167 C 68.074 99.167,68.000 99.277,68.000 99.411 C 68.000 99.545,67.850 99.735,67.667 99.833 C 67.483 99.931,67.333 100.089,67.333 100.184 C 67.333 100.279,67.240 100.457,67.125 100.579 C 67.010 100.701,66.654 101.111,66.333 101.490 C 65.479 102.500,63.279 104.698,62.737 105.083 C 62.479 105.267,62.154 105.548,62.014 105.708 C 61.874 105.869,61.691 106.000,61.607 106.000 C 61.523 106.000,61.281 106.188,61.069 106.417 C 60.856 106.646,60.602 106.833,60.503 106.833 C 60.404 106.833,60.282 106.941,60.231 107.072 C 60.181 107.203,59.921 107.386,59.653 107.480 C 59.386 107.573,59.167 107.728,59.167 107.825 C 59.167 107.921,59.052 108.000,58.911 108.000 C 58.771 108.000,58.615 108.108,58.564 108.240 C 58.514 108.372,58.253 108.528,57.986 108.586 C 57.719 108.645,57.500 108.757,57.500 108.836 C 57.500 108.914,57.237 109.073,56.917 109.189 C 56.596 109.305,56.333 109.454,56.333 109.520 C 56.333 109.586,56.108 109.690,55.833 109.750 C 55.558 109.810,55.333 109.923,55.333 110.000 C 55.333 110.077,55.108 110.190,54.833 110.250 C 54.558 110.310,54.333 110.425,54.333 110.506 C 54.333 110.586,54.071 110.701,53.750 110.761 C 53.429 110.821,53.167 110.930,53.167 111.002 C 53.167 111.074,52.773 111.227,52.292 111.340 C 51.810 111.454,51.269 111.649,51.088 111.774 C 50.907 111.898,50.551 112.000,50.296 112.000 C 50.042 112.000,49.833 112.066,49.833 112.148 C 49.833 112.229,49.477 112.349,49.042 112.414 C 48.606 112.479,48.211 112.595,48.164 112.671 C 48.117 112.747,47.254 112.901,46.247 113.013 C 45.241 113.125,44.367 113.293,44.307 113.386 C 44.148 113.630,36.309 113.626,35.804 113.382 C 35.591 113.279,34.610 113.102,33.625 112.989 C 32.640 112.876,31.833 112.727,31.833 112.658 C 31.833 112.588,31.458 112.480,31.000 112.417 C 30.542 112.354,30.167 112.243,30.167 112.170 C 30.167 112.097,29.829 111.987,29.417 111.925 C 29.004 111.864,28.667 111.757,28.667 111.688 C 28.667 111.619,28.288 111.466,27.825 111.347 C 27.363 111.229,26.669 110.965,26.284 110.760 C 25.898 110.556,25.377 110.337,25.125 110.275 C 24.873 110.212,24.667 110.093,24.667 110.010 C 24.667 109.927,24.442 109.810,24.167 109.750 C 23.892 109.690,23.667 109.577,23.667 109.500 C 23.667 109.422,23.404 109.273,23.083 109.167 C 22.762 109.061,22.500 108.913,22.500 108.838 C 22.500 108.764,22.313 108.656,22.083 108.598 C 21.854 108.541,21.667 108.420,21.667 108.330 C 21.667 108.240,21.587 108.167,21.489 108.167 C 21.391 108.167,21.065 107.979,20.765 107.750 C 20.464 107.521,20.159 107.333,20.087 107.333 C 20.014 107.333,19.781 107.146,19.569 106.917 C 19.356 106.688,19.136 106.500,19.080 106.500 C 18.769 106.500,13.333 101.375,13.333 101.081 C 13.333 101.029,13.175 100.820,12.983 100.618 C 12.790 100.416,12.510 100.063,12.362 99.833 C 12.213 99.604,11.996 99.357,11.879 99.283 C 11.762 99.210,11.667 99.048,11.667 98.922 C 11.667 98.797,11.610 98.669,11.542 98.639 C 11.349 98.553,10.667 97.536,10.667 97.335 C 10.667 97.237,10.561 97.116,10.432 97.066 C 10.302 97.016,10.149 96.787,10.092 96.557 C 9.994 96.167,9.887 95.996,9.390 95.437 C 9.283 95.318,9.102 94.908,8.988 94.527 C 8.874 94.145,8.721 93.833,8.648 93.833 C 8.575 93.833,8.466 93.571,8.406 93.250 C 8.345 92.929,8.236 92.667,8.161 92.667 C 8.087 92.667,7.977 92.442,7.917 92.167 C 7.856 91.892,7.746 91.667,7.672 91.667 C 7.598 91.667,7.485 91.385,7.420 91.042 C 7.356 90.698,7.245 90.342,7.174 90.250 C 7.102 90.158,6.949 89.671,6.833 89.167 C 6.718 88.662,6.565 88.175,6.494 88.083 C 6.423 87.992,6.310 87.542,6.242 87.083 C 6.175 86.625,6.060 86.211,5.987 86.163 C 5.914 86.116,5.801 85.478,5.736 84.747 C 5.671 84.015,5.535 83.363,5.434 83.298 C 5.179 83.133,5.186 74.529,5.441 74.366 C 5.541 74.302,5.677 73.725,5.744 73.083 C 5.811 72.442,5.924 71.842,5.996 71.750 C 6.067 71.658,6.178 71.152,6.241 70.625 C 6.305 70.098,6.413 69.667,6.481 69.667 C 6.550 69.667,6.702 69.179,6.821 68.583 C 6.939 67.987,7.103 67.500,7.185 67.500 C 7.266 67.500,7.333 67.329,7.333 67.120 C 7.333 66.912,7.435 66.593,7.558 66.412 C 7.682 66.231,7.838 65.859,7.905 65.585 C 7.972 65.311,8.077 65.048,8.138 65.002 C 8.305 64.875,9.167 63.080,9.167 62.858 C 9.167 62.753,9.236 62.667,9.320 62.667 C 9.404 62.667,9.523 62.442,9.583 62.167 C 9.644 61.892,9.762 61.667,9.847 61.667 C 9.931 61.667,10.000 61.587,10.000 61.489 C 10.000 61.391,10.188 61.065,10.417 60.765 C 10.646 60.464,10.833 60.132,10.833 60.026 C 10.833 59.920,10.908 59.833,11.000 59.833 C 11.092 59.833,11.167 59.720,11.167 59.582 C 11.167 59.443,11.317 59.202,11.500 59.045 C 11.683 58.888,11.833 58.663,11.833 58.546 C 11.833 58.429,11.894 58.333,11.968 58.333 C 12.081 58.333,12.755 57.497,13.417 56.534 C 13.673 56.161,17.193 52.667,17.312 52.667 C 17.370 52.667,17.792 52.332,18.250 51.923 C 18.708 51.515,19.215 51.065,19.375 50.923 C 19.535 50.782,19.730 50.667,19.808 50.667 C 19.885 50.667,20.129 50.518,20.349 50.336 C 21.113 49.707,21.577 49.406,22.292 49.078 C 22.590 48.941,22.833 48.761,22.833 48.678 C 22.833 48.595,23.058 48.477,23.333 48.417 C 23.608 48.356,23.833 48.244,23.833 48.167 C 23.833 48.090,24.058 47.977,24.333 47.917 C 24.608 47.856,24.833 47.746,24.833 47.671 C 24.833 47.597,25.037 47.485,25.286 47.423 C 25.535 47.360,26.056 47.164,26.443 46.988 C 26.831 46.811,27.227 46.667,27.324 46.667 C 27.421 46.667,27.500 46.598,27.500 46.515 C 27.500 46.431,27.800 46.312,28.167 46.250 C 28.533 46.188,28.833 46.077,28.833 46.004 C 28.833 45.931,29.171 45.821,29.583 45.759 C 29.996 45.697,30.333 45.588,30.333 45.517 C 30.333 45.445,30.971 45.292,31.750 45.176 C 32.529 45.060,33.167 44.905,33.167 44.832 C 33.167 44.758,33.879 44.644,34.750 44.579 C 35.621 44.514,36.333 44.394,36.333 44.314 C 36.333 44.233,37.946 44.167,39.917 44.167 C 41.887 44.167,43.500 44.231,43.500 44.309 M123.500 44.309 C 123.500 44.388,124.192 44.504,125.037 44.568 C 125.883 44.632,126.614 44.742,126.662 44.813 C 126.711 44.883,127.406 45.041,128.208 45.164 C 129.010 45.287,129.667 45.441,129.667 45.508 C 129.667 45.574,130.004 45.679,130.417 45.741 C 130.829 45.803,131.167 45.916,131.167 45.992 C 131.167 46.068,131.429 46.179,131.750 46.239 C 132.071 46.299,132.333 46.420,132.333 46.508 C 132.333 46.595,132.465 46.667,132.625 46.668 C 132.785 46.668,133.104 46.764,133.333 46.881 C 133.563 46.998,134.069 47.197,134.458 47.324 C 134.848 47.450,135.167 47.610,135.167 47.680 C 135.167 47.750,135.392 47.856,135.667 47.917 C 135.942 47.977,136.167 48.087,136.167 48.160 C 136.167 48.234,136.298 48.343,136.458 48.401 C 136.619 48.460,137.050 48.692,137.417 48.917 C 137.783 49.143,138.271 49.421,138.500 49.536 C 138.729 49.652,139.016 49.841,139.137 49.956 C 139.258 50.072,139.424 50.167,139.506 50.167 C 139.588 50.167,139.902 50.390,140.203 50.664 C 141.167 51.540,141.330 51.667,141.492 51.667 C 141.579 51.667,141.906 51.929,142.217 52.250 C 142.529 52.571,142.831 52.833,142.889 52.833 C 143.028 52.833,146.000 55.779,146.000 55.916 C 146.000 55.975,146.262 56.298,146.582 56.636 C 146.902 56.974,147.164 57.310,147.165 57.383 C 147.166 57.456,147.354 57.690,147.583 57.902 C 147.813 58.114,148.000 58.369,148.000 58.468 C 148.000 58.567,148.139 58.746,148.309 58.866 C 148.480 58.985,148.672 59.252,148.737 59.458 C 148.802 59.665,148.926 59.833,149.011 59.833 C 149.097 59.833,149.167 59.948,149.167 60.089 C 149.167 60.229,149.275 60.385,149.406 60.436 C 149.538 60.486,149.693 60.740,149.750 61.000 C 149.807 61.260,149.955 61.511,150.078 61.558 C 150.201 61.605,150.352 61.874,150.414 62.155 C 150.476 62.437,150.587 62.667,150.662 62.667 C 150.736 62.667,150.849 62.872,150.912 63.123 C 150.975 63.374,151.077 63.618,151.138 63.665 C 151.378 63.848,152.000 65.167,152.000 65.491 C 152.000 65.679,152.068 65.833,152.150 65.833 C 152.233 65.833,152.393 66.227,152.508 66.708 C 152.622 67.190,152.785 67.629,152.870 67.684 C 152.955 67.740,153.067 68.096,153.118 68.476 C 153.169 68.856,153.273 69.167,153.350 69.167 C 153.426 69.167,153.538 69.542,153.599 70.000 C 153.660 70.458,153.767 70.833,153.836 70.833 C 153.906 70.833,154.051 71.602,154.159 72.542 C 154.267 73.481,154.438 74.419,154.540 74.626 C 154.789 75.133,154.793 82.522,154.544 83.040 C 154.445 83.247,154.279 84.164,154.176 85.077 C 154.073 85.990,153.924 86.778,153.845 86.827 C 153.765 86.876,153.647 87.348,153.581 87.875 C 153.515 88.402,153.404 88.833,153.333 88.833 C 153.262 88.833,153.151 89.115,153.087 89.458 C 153.023 89.802,152.912 90.158,152.840 90.250 C 152.768 90.342,152.611 90.810,152.490 91.292 C 152.369 91.773,152.218 92.167,152.153 92.167 C 152.089 92.167,151.985 92.372,151.922 92.623 C 151.858 92.874,151.755 93.118,151.691 93.165 C 151.519 93.291,150.164 96.053,150.165 96.274 C 150.166 96.379,150.054 96.508,149.917 96.560 C 149.779 96.613,149.667 96.771,149.667 96.911 C 149.667 97.052,149.592 97.167,149.500 97.167 C 149.408 97.167,149.333 97.245,149.333 97.340 C 149.333 97.560,148.651 98.540,148.375 98.717 C 148.260 98.790,148.167 98.959,148.167 99.093 C 148.167 99.227,148.017 99.465,147.833 99.622 C 147.650 99.779,147.497 99.984,147.493 100.079 C 147.489 100.173,147.264 100.434,146.993 100.659 C 146.722 100.884,146.500 101.135,146.500 101.217 C 146.500 101.411,142.581 105.333,142.388 105.333 C 142.307 105.333,142.052 105.548,141.822 105.811 C 141.591 106.074,141.244 106.339,141.050 106.401 C 140.856 106.462,140.655 106.622,140.604 106.756 C 140.553 106.890,140.396 107.000,140.255 107.000 C 140.115 107.000,140.000 107.077,140.000 107.170 C 140.000 107.264,139.794 107.431,139.542 107.542 C 139.290 107.652,139.023 107.838,138.950 107.955 C 138.877 108.071,138.708 108.167,138.575 108.167 C 138.442 108.167,138.333 108.242,138.333 108.333 C 138.333 108.425,138.218 108.500,138.078 108.500 C 137.938 108.500,137.780 108.612,137.727 108.750 C 137.674 108.888,137.548 109.000,137.446 109.000 C 137.209 109.000,134.444 110.342,134.332 110.512 C 134.285 110.583,134.041 110.692,133.790 110.755 C 133.539 110.818,133.333 110.928,133.333 110.999 C 133.333 111.122,133.167 111.171,131.875 111.429 C 131.577 111.489,131.333 111.598,131.333 111.671 C 131.333 111.744,131.033 111.855,130.667 111.917 C 130.300 111.979,130.000 112.090,130.000 112.165 C 130.000 112.240,129.550 112.353,129.000 112.417 C 128.450 112.481,128.000 112.592,128.000 112.664 C 128.000 112.737,127.231 112.886,126.292 112.997 C 125.352 113.107,124.411 113.280,124.200 113.381 C 123.685 113.628,116.310 113.625,115.793 113.377 C 115.586 113.278,114.670 113.113,113.756 113.010 C 112.843 112.907,112.056 112.757,112.006 112.678 C 111.957 112.599,111.485 112.480,110.958 112.414 C 110.431 112.349,110.000 112.233,110.000 112.158 C 110.000 112.082,109.662 111.970,109.250 111.908 C 108.837 111.846,108.500 111.736,108.500 111.664 C 108.500 111.592,108.125 111.443,107.667 111.333 C 107.208 111.223,106.833 111.074,106.833 111.002 C 106.833 110.930,106.571 110.821,106.250 110.761 C 105.929 110.701,105.667 110.588,105.667 110.511 C 105.667 110.433,105.461 110.318,105.210 110.255 C 104.959 110.192,104.715 110.089,104.668 110.027 C 104.622 109.964,104.133 109.691,103.583 109.420 C 103.033 109.149,102.484 108.831,102.363 108.713 C 102.242 108.596,102.036 108.500,101.905 108.500 C 101.774 108.500,101.667 108.426,101.667 108.337 C 101.667 108.247,101.479 108.126,101.250 108.068 C 101.021 108.011,100.833 107.895,100.833 107.811 C 100.833 107.727,100.646 107.587,100.417 107.500 C 100.188 107.413,100.000 107.265,100.000 107.171 C 100.000 107.077,99.887 107.000,99.748 107.000 C 99.610 107.000,99.368 106.850,99.211 106.667 C 99.054 106.483,98.870 106.333,98.802 106.333 C 98.734 106.333,98.415 106.071,98.094 105.750 C 97.774 105.429,97.415 105.163,97.297 105.160 C 97.180 105.156,96.896 104.919,96.667 104.634 C 96.438 104.349,96.109 103.996,95.937 103.850 C 95.414 103.404,94.332 102.278,93.947 101.778 C 93.747 101.518,93.377 101.093,93.125 100.832 C 92.873 100.572,92.667 100.292,92.667 100.210 C 92.667 100.127,92.479 99.897,92.250 99.698 C 92.021 99.499,91.833 99.231,91.833 99.102 C 91.833 98.974,91.721 98.826,91.583 98.773 C 91.446 98.720,91.333 98.597,91.333 98.498 C 91.333 98.331,91.210 98.151,90.721 97.602 C 90.613 97.481,90.408 97.127,90.266 96.816 C 89.977 96.184,89.641 95.627,89.472 95.498 C 89.410 95.452,89.308 95.208,89.245 94.957 C 89.182 94.705,89.076 94.500,89.009 94.500 C 88.942 94.500,88.788 94.200,88.667 93.833 C 88.546 93.467,88.387 93.167,88.314 93.167 C 88.241 93.167,88.133 92.904,88.072 92.583 C 88.012 92.263,87.897 92.000,87.817 92.000 C 87.736 92.000,87.623 91.700,87.564 91.333 C 87.505 90.967,87.399 90.667,87.327 90.667 C 87.255 90.667,87.145 90.367,87.083 90.000 C 87.021 89.633,86.913 89.333,86.842 89.333 C 86.772 89.333,86.617 88.768,86.499 88.078 C 86.381 87.388,86.226 86.787,86.155 86.743 C 86.084 86.699,85.973 86.158,85.908 85.540 C 85.842 84.922,85.705 84.363,85.603 84.298 C 85.343 84.132,85.340 73.704,85.600 73.536 C 85.701 73.470,85.836 72.894,85.900 72.255 C 85.964 71.615,86.079 71.053,86.154 71.005 C 86.230 70.956,86.383 70.373,86.494 69.709 C 86.606 69.045,86.758 68.463,86.834 68.416 C 86.909 68.370,87.022 68.032,87.083 67.666 C 87.145 67.300,87.258 67.000,87.335 67.000 C 87.411 67.000,87.526 66.756,87.591 66.458 C 87.656 66.160,87.758 65.879,87.818 65.833 C 87.878 65.787,88.147 65.188,88.417 64.500 C 88.686 63.813,88.946 63.212,88.995 63.167 C 89.162 63.010,89.512 62.416,89.709 61.958 C 89.818 61.706,89.957 61.500,90.018 61.500 C 90.080 61.500,90.174 61.326,90.227 61.114 C 90.281 60.902,90.476 60.553,90.662 60.339 C 90.848 60.124,91.000 59.856,91.000 59.742 C 91.000 59.629,91.112 59.492,91.250 59.440 C 91.388 59.387,91.500 59.237,91.500 59.106 C 91.500 58.976,91.612 58.826,91.750 58.773 C 91.888 58.720,92.000 58.601,92.000 58.507 C 92.000 58.414,92.131 58.180,92.292 57.988 C 92.452 57.796,92.715 57.476,92.877 57.278 C 94.082 55.794,96.383 53.333,96.564 53.333 C 96.625 53.333,97.013 52.996,97.425 52.583 C 97.838 52.171,98.230 51.832,98.296 51.830 C 98.362 51.829,98.593 51.641,98.809 51.414 C 99.025 51.186,99.272 51.000,99.358 51.000 C 99.444 51.000,99.605 50.924,99.715 50.830 C 100.519 50.153,100.744 50.000,100.942 50.000 C 101.066 50.000,101.167 49.929,101.167 49.842 C 101.167 49.684,101.691 49.350,102.542 48.967 C 102.794 48.853,103.000 48.702,103.000 48.630 C 103.000 48.559,103.107 48.500,103.238 48.500 C 103.369 48.500,103.579 48.397,103.704 48.272 C 103.830 48.147,104.097 47.992,104.299 47.927 C 104.501 47.863,104.667 47.748,104.667 47.672 C 104.667 47.596,105.042 47.443,105.500 47.333 C 105.958 47.223,106.333 47.067,106.333 46.985 C 106.333 46.904,106.633 46.789,107.000 46.731 C 107.367 46.672,107.667 46.562,107.667 46.486 C 107.667 46.410,107.929 46.299,108.250 46.239 C 108.571 46.179,108.833 46.068,108.833 45.992 C 108.833 45.916,109.190 45.801,109.625 45.737 C 110.060 45.673,110.458 45.557,110.508 45.480 C 110.558 45.403,111.196 45.249,111.925 45.138 C 112.654 45.027,113.292 44.876,113.343 44.802 C 113.394 44.728,114.125 44.619,114.968 44.559 C 115.811 44.499,116.500 44.386,116.500 44.308 C 116.500 44.230,118.075 44.167,120.000 44.167 C 121.925 44.167,123.500 44.231,123.500 44.309 M176.500 48.645 C 176.500 48.725,176.125 48.840,175.667 48.901 C 175.208 48.962,174.833 49.066,174.833 49.132 C 174.833 49.198,174.590 49.359,174.292 49.490 C 173.479 49.848,171.534 51.872,171.238 52.667 C 171.187 52.804,171.019 53.174,170.864 53.488 C 170.528 54.172,170.446 58.589,170.766 58.798 C 170.866 58.863,171.004 59.141,171.071 59.415 C 171.138 59.689,171.243 59.952,171.305 59.998 C 171.456 60.113,172.167 61.133,172.167 61.235 C 172.167 61.364,172.943 62.167,173.068 62.167 C 173.130 62.167,173.342 62.317,173.538 62.500 C 173.735 62.683,173.995 62.833,174.115 62.833 C 174.235 62.833,174.333 62.902,174.333 62.987 C 174.333 63.071,174.577 63.193,174.875 63.258 C 175.173 63.322,175.470 63.460,175.536 63.563 C 175.705 63.829,180.801 63.822,180.966 63.555 C 181.032 63.448,181.292 63.308,181.543 63.245 C 181.795 63.182,182.000 63.082,182.000 63.023 C 182.000 62.963,182.226 62.815,182.502 62.693 C 183.285 62.346,184.833 60.701,184.833 60.216 C 184.833 60.097,184.900 60.000,184.982 60.000 C 185.064 60.000,185.182 59.795,185.245 59.543 C 185.308 59.292,185.448 59.032,185.555 58.966 C 185.894 58.756,185.808 53.869,185.454 53.250 C 185.297 52.975,185.168 52.656,185.168 52.542 C 185.167 52.427,185.092 52.333,185.000 52.333 C 184.908 52.333,184.833 52.218,184.833 52.078 C 184.833 51.938,184.721 51.780,184.583 51.727 C 184.446 51.674,184.333 51.535,184.333 51.418 C 184.333 51.301,184.015 50.931,183.625 50.596 C 183.235 50.260,182.804 49.883,182.665 49.756 C 182.527 49.630,182.208 49.475,181.957 49.412 C 181.706 49.349,181.500 49.235,181.500 49.159 C 181.500 49.083,181.162 48.970,180.750 48.908 C 180.338 48.846,180.000 48.729,180.000 48.648 C 180.000 48.566,179.213 48.500,178.250 48.500 C 177.287 48.500,176.500 48.565,176.500 48.645 M224.763 51.478 C 224.714 51.558,224.466 51.666,224.212 51.718 C 221.486 52.273,220.733 57.863,223.141 59.666 C 223.384 59.847,223.664 60.063,223.763 60.145 C 225.032 61.192,228.169 60.879,229.588 59.564 C 230.673 58.559,231.687 54.500,230.854 54.500 C 230.774 54.500,230.665 54.294,230.613 54.042 C 230.470 53.356,229.045 51.946,228.161 51.616 C 227.359 51.316,224.925 51.218,224.763 51.478 M167.792 71.945 C 167.540 71.987,167.333 72.083,167.333 72.157 C 167.333 72.231,167.127 72.334,166.875 72.386 C 166.623 72.437,166.240 72.616,166.024 72.782 C 165.044 73.534,164.500 74.050,164.500 74.227 C 164.500 74.333,164.350 74.513,164.167 74.628 C 163.983 74.742,163.833 74.948,163.833 75.085 C 163.833 75.221,163.764 75.333,163.680 75.333 C 163.596 75.333,163.474 75.577,163.411 75.875 C 163.347 76.173,163.210 76.521,163.107 76.649 C 162.852 76.965,162.849 80.969,163.104 81.131 C 163.207 81.196,163.344 81.494,163.409 81.792 C 163.474 82.090,163.596 82.333,163.680 82.333 C 163.764 82.333,163.833 82.405,163.833 82.493 C 163.833 82.957,165.345 84.667,165.757 84.667 C 165.871 84.667,166.008 84.779,166.060 84.917 C 166.113 85.054,166.271 85.167,166.411 85.167 C 166.552 85.167,166.667 85.236,166.667 85.320 C 166.667 85.404,166.910 85.526,167.208 85.589 C 167.506 85.653,167.855 85.790,167.984 85.894 C 168.319 86.165,171.918 86.148,172.191 85.875 C 172.306 85.760,172.545 85.667,172.722 85.667 C 173.053 85.667,174.206 85.035,174.306 84.799 C 174.336 84.726,174.449 84.667,174.556 84.666 C 174.723 84.666,175.205 84.181,176.256 82.953 C 176.396 82.790,176.555 82.434,176.609 82.161 C 176.664 81.889,176.770 81.667,176.846 81.667 C 176.922 81.667,177.034 81.217,177.097 80.667 C 177.159 80.117,177.275 79.667,177.355 79.667 C 177.435 79.667,177.500 79.367,177.500 79.000 C 177.500 78.633,177.435 78.333,177.356 78.333 C 177.278 78.333,177.171 77.873,177.120 77.310 C 177.069 76.747,176.952 76.240,176.860 76.183 C 176.768 76.126,176.642 75.874,176.578 75.623 C 176.515 75.372,176.397 75.167,176.315 75.167 C 176.234 75.167,176.167 75.061,176.167 74.932 C 176.167 74.539,174.178 72.696,173.524 72.483 C 173.190 72.374,172.863 72.202,172.798 72.101 C 172.677 71.914,168.711 71.790,167.792 71.945 M232.428 73.814 C 232.378 73.896,232.074 74.012,231.752 74.072 C 231.430 74.132,231.167 74.253,231.167 74.341 C 231.167 74.428,231.066 74.500,230.943 74.500 C 230.324 74.500,228.833 76.789,228.833 77.741 C 228.833 78.067,228.758 78.333,228.667 78.333 C 228.455 78.333,228.450 79.079,228.658 79.461 C 228.745 79.620,228.862 80.106,228.918 80.542 C 228.974 80.977,229.091 81.333,229.177 81.333 C 229.263 81.333,229.333 81.429,229.333 81.546 C 229.333 81.663,229.465 81.882,229.625 82.033 C 229.785 82.183,230.121 82.523,230.371 82.788 C 231.399 83.878,235.548 84.570,236.131 83.750 C 236.197 83.658,236.522 83.445,236.854 83.277 C 237.553 82.922,238.833 81.271,238.833 80.725 C 238.833 80.520,238.908 80.307,239.000 80.250 C 239.206 80.123,239.224 77.500,239.019 77.500 C 238.937 77.500,238.821 77.237,238.761 76.917 C 238.701 76.596,238.580 76.333,238.492 76.333 C 238.405 76.333,238.333 76.225,238.333 76.092 C 238.333 75.959,238.240 75.790,238.125 75.717 C 238.010 75.643,237.842 75.447,237.750 75.281 C 237.658 75.114,237.358 74.851,237.083 74.697 C 236.808 74.543,236.545 74.366,236.498 74.305 C 236.452 74.243,236.207 74.141,235.955 74.078 C 235.703 74.015,235.456 73.896,235.405 73.815 C 235.286 73.622,232.548 73.621,232.428 73.814 M117.667 78.577 C 117.667 80.368,117.706 81.833,117.754 81.833 C 117.827 81.833,122.066 78.937,122.333 78.705 C 122.379 78.665,122.267 78.522,122.083 78.386 C 120.944 77.542,118.203 75.610,117.958 75.478 C 117.685 75.332,117.667 75.528,117.667 78.577 M176.208 96.109 C 176.002 96.154,175.833 96.260,175.833 96.345 C 175.833 96.430,175.656 96.500,175.439 96.500 C 175.222 96.500,174.854 96.650,174.621 96.833 C 174.388 97.017,174.154 97.167,174.102 97.167 C 173.937 97.167,172.833 98.297,172.833 98.466 C 172.833 98.554,172.725 98.716,172.592 98.826 C 172.459 98.936,172.261 99.302,172.151 99.638 C 172.041 99.975,171.869 100.304,171.768 100.369 C 171.649 100.446,171.583 101.259,171.583 102.667 C 171.583 104.074,171.649 104.887,171.768 104.964 C 171.869 105.030,172.043 105.363,172.155 105.706 C 172.395 106.444,174.307 108.445,174.918 108.598 C 175.146 108.656,175.333 108.763,175.333 108.838 C 175.333 109.055,176.923 109.333,178.167 109.333 C 179.422 109.333,181.000 109.055,181.000 108.833 C 181.000 108.756,181.225 108.644,181.500 108.583 C 181.775 108.523,182.000 108.402,182.000 108.315 C 182.000 108.228,182.131 108.106,182.292 108.045 C 182.672 107.900,183.667 106.933,183.667 106.709 C 183.667 106.614,183.772 106.495,183.901 106.446 C 184.030 106.396,184.189 106.107,184.255 105.803 C 184.321 105.499,184.460 105.197,184.563 105.131 C 185.237 104.703,184.519 98.833,183.793 98.833 C 183.723 98.833,183.667 98.747,183.667 98.641 C 183.667 98.268,182.347 97.162,181.083 96.476 C 180.422 96.118,177.275 95.881,176.208 96.109 M223.958 97.111 C 223.706 97.154,223.500 97.251,223.500 97.326 C 223.500 97.402,223.294 97.516,223.042 97.579 C 222.790 97.642,222.462 97.819,222.314 97.972 C 222.166 98.125,221.885 98.360,221.689 98.495 C 221.493 98.630,221.333 98.839,221.333 98.959 C 221.333 99.079,221.228 99.218,221.098 99.267 C 220.969 99.317,220.813 99.558,220.752 99.802 C 220.690 100.047,220.552 100.301,220.445 100.367 C 220.079 100.593,220.189 104.491,220.583 105.262 C 221.028 106.132,222.334 107.452,222.888 107.591 C 223.133 107.653,223.333 107.769,223.333 107.849 C 223.333 107.930,223.635 108.044,224.004 108.103 C 224.372 108.162,224.714 108.276,224.764 108.355 C 224.880 108.544,226.833 108.544,226.833 108.355 C 226.833 108.276,227.144 108.169,227.524 108.118 C 227.904 108.067,228.260 107.955,228.316 107.868 C 228.371 107.782,228.567 107.665,228.751 107.607 C 229.208 107.465,230.667 106.046,230.667 105.744 C 230.667 105.610,230.738 105.500,230.826 105.500 C 230.913 105.500,231.034 105.237,231.094 104.917 C 231.155 104.596,231.270 104.333,231.352 104.333 C 231.549 104.333,231.543 101.047,231.346 100.925 C 231.262 100.872,231.143 100.605,231.083 100.331 C 231.023 100.057,230.904 99.833,230.820 99.833 C 230.736 99.833,230.667 99.718,230.667 99.578 C 230.667 99.438,230.554 99.280,230.417 99.227 C 230.279 99.174,230.167 99.033,230.167 98.913 C 230.167 98.640,229.057 97.754,228.500 97.583 C 228.271 97.513,228.031 97.373,227.967 97.274 C 227.848 97.087,224.818 96.964,223.958 97.111 M199.708 104.776 C 199.502 104.820,199.333 104.918,199.333 104.994 C 199.333 105.069,199.133 105.181,198.888 105.242 C 198.481 105.344,196.667 106.979,196.667 107.244 C 196.667 107.306,196.561 107.463,196.432 107.592 C 196.303 107.721,196.146 108.128,196.084 108.497 C 196.022 108.865,195.902 109.167,195.819 109.167 C 195.735 109.167,195.667 109.879,195.667 110.750 C 195.667 111.621,195.735 112.333,195.819 112.333 C 195.902 112.333,196.022 112.635,196.084 113.003 C 196.146 113.372,196.303 113.779,196.432 113.908 C 196.561 114.037,196.667 114.226,196.667 114.327 C 196.667 114.428,196.776 114.553,196.910 114.604 C 197.044 114.655,197.199 114.841,197.255 115.015 C 197.310 115.190,197.436 115.333,197.534 115.333 C 197.632 115.333,197.877 115.512,198.080 115.731 C 198.282 115.949,198.628 116.184,198.849 116.253 C 199.070 116.322,199.290 116.440,199.339 116.515 C 199.666 117.020,204.166 117.023,204.493 116.518 C 204.543 116.441,204.762 116.322,204.980 116.254 C 205.428 116.114,207.167 114.469,207.167 114.185 C 207.167 114.083,207.227 114.000,207.301 114.000 C 207.559 114.000,208.167 111.722,208.167 110.750 C 208.167 109.778,207.559 107.500,207.301 107.500 C 207.227 107.500,207.167 107.412,207.167 107.305 C 207.167 107.023,205.415 105.381,204.964 105.241 C 204.755 105.175,204.530 105.038,204.465 104.936 C 204.344 104.747,200.457 104.616,199.708 104.776 " stroke="none" fill="#fbfbfb" fill-rule="evenodd"></path><path id="path3" d="M145.574 8.426 C 145.266 8.672,145.270 8.675,145.648 8.491 C 146.020 8.310,146.637 8.338,147.417 8.572 C 147.600 8.627,147.525 8.561,147.250 8.427 C 146.594 8.105,145.974 8.105,145.574 8.426 M147.833 8.738 C 147.833 9.032,148.484 9.134,148.683 8.871 C 148.865 8.630,148.864 8.616,148.675 8.784 C 148.518 8.923,148.355 8.934,148.141 8.820 C 147.972 8.729,147.833 8.692,147.833 8.738 M150.879 10.500 C 150.879 10.912,150.911 11.081,150.951 10.875 C 150.991 10.669,150.991 10.331,150.951 10.125 C 150.911 9.919,150.879 10.087,150.879 10.500 M155.833 12.124 C 155.971 12.177,156.181 12.340,156.301 12.485 C 156.485 12.710,156.491 12.693,156.337 12.375 C 156.237 12.169,156.026 12.006,155.869 12.013 C 155.637 12.024,155.631 12.045,155.833 12.124 M147.333 12.417 C 147.104 12.548,146.992 12.655,147.083 12.655 C 147.175 12.655,147.438 12.548,147.667 12.417 C 147.896 12.286,148.008 12.178,147.917 12.178 C 147.825 12.178,147.563 12.286,147.333 12.417 M117.500 78.583 C 117.500 82.462,117.451 82.356,118.798 81.375 C 120.608 80.056,122.155 78.994,122.405 78.898 C 122.810 78.743,122.725 78.585,121.958 78.065 C 121.569 77.801,120.479 77.041,119.536 76.376 C 118.593 75.711,117.750 75.167,117.661 75.167 C 117.563 75.167,117.500 76.497,117.500 78.583 M120.000 76.887 C 122.417 78.616,122.427 78.624,122.333 78.705 C 122.066 78.937,117.827 81.833,117.754 81.833 C 117.706 81.833,117.667 80.368,117.667 78.577 C 117.667 75.528,117.685 75.332,117.958 75.478 C 118.119 75.565,119.037 76.199,120.000 76.887 M63.881 78.750 C 63.882 79.208,63.915 79.376,63.953 79.123 C 63.991 78.869,63.990 78.494,63.951 78.289 C 63.911 78.084,63.880 78.292,63.881 78.750 M112.960 98.951 C 113.168 98.991,113.468 98.990,113.627 98.948 C 113.786 98.906,113.617 98.874,113.250 98.875 C 112.883 98.877,112.753 98.911,112.960 98.951 " stroke="none" fill="#ad98af" fill-rule="evenodd"></path><path id="path4" d="M145.268 7.305 C 145.221 7.381,145.584 7.409,146.076 7.369 C 147.339 7.264,148.799 7.962,148.568 8.562 C 148.479 8.795,148.429 8.794,148.063 8.554 C 147.839 8.408,147.614 8.330,147.563 8.382 C 147.511 8.433,147.694 8.592,147.968 8.734 C 148.535 9.027,149.255 8.411,148.785 8.035 C 147.897 7.324,145.556 6.838,145.268 7.305 M152.757 7.322 C 152.700 7.414,153.021 7.439,153.549 7.385 C 154.799 7.256,156.431 7.987,156.157 8.554 C 155.990 8.900,155.993 8.902,156.235 8.600 C 156.562 8.193,156.480 8.080,155.494 7.580 C 154.655 7.155,152.959 6.995,152.757 7.322 M144.446 7.969 C 143.820 8.623,143.887 8.806,144.520 8.172 C 144.806 7.886,145.007 7.618,144.966 7.578 C 144.926 7.537,144.692 7.713,144.446 7.969 M151.863 8.100 C 150.576 9.661,150.881 12.384,152.452 13.355 C 153.461 13.979,156.338 13.609,156.331 12.857 C 156.324 12.180,156.090 12.116,155.035 12.501 C 153.890 12.918,153.053 12.787,152.584 12.117 C 152.446 11.920,152.333 11.848,152.333 11.956 C 152.333 12.881,154.173 13.242,155.466 12.572 C 155.950 12.321,156.273 12.482,156.114 12.897 C 155.837 13.618,152.986 13.686,152.231 12.990 C 151.078 11.926,150.967 9.324,152.026 8.166 C 152.296 7.870,152.484 7.595,152.444 7.555 C 152.404 7.515,152.143 7.761,151.863 8.100 M145.318 8.376 C 144.269 9.285,144.006 10.760,144.687 11.914 C 145.151 12.700,145.255 12.577,144.831 11.745 C 143.929 9.976,145.062 7.922,146.764 8.242 C 147.172 8.318,147.331 8.297,147.257 8.177 C 147.051 7.844,145.781 7.974,145.318 8.376 M152.790 8.423 C 152.539 8.656,152.333 8.913,152.333 8.994 C 152.333 9.075,152.562 8.912,152.841 8.633 C 153.293 8.181,153.431 8.134,154.091 8.209 C 154.499 8.255,154.833 8.227,154.833 8.146 C 154.833 7.784,153.247 7.999,152.790 8.423 M155.333 8.563 C 155.562 8.697,155.781 8.775,155.819 8.736 C 155.923 8.633,155.798 8.554,155.333 8.430 L 154.917 8.319 155.333 8.563 M143.686 9.350 C 142.939 11.493,144.348 13.701,146.463 13.699 C 147.425 13.699,148.833 13.266,148.833 12.971 C 148.833 12.381,148.164 11.934,147.906 12.351 C 147.830 12.474,147.904 12.500,148.125 12.430 C 148.611 12.276,148.732 12.879,148.273 13.166 C 145.979 14.599,143.199 12.408,143.818 9.655 C 144.015 8.777,143.943 8.612,143.686 9.350 M152.000 10.500 C 152.000 11.142,152.056 11.667,152.125 11.667 C 152.194 11.667,152.250 11.142,152.250 10.501 C 152.250 9.859,152.194 9.334,152.125 9.334 C 152.056 9.334,152.000 9.858,152.000 10.500 M145.333 12.658 C 145.333 13.054,147.359 13.029,147.606 12.630 C 147.666 12.532,147.580 12.503,147.396 12.558 C 146.545 12.811,146.200 12.838,145.785 12.680 C 145.536 12.585,145.333 12.575,145.333 12.658 M31.868 58.290 C 32.482 58.322,33.532 58.322,34.201 58.291 C 34.870 58.259,34.367 58.233,33.083 58.232 C 31.800 58.232,31.253 58.258,31.868 58.290 M45.792 58.290 C 46.273 58.323,47.060 58.323,47.542 58.290 C 48.023 58.256,47.629 58.228,46.667 58.228 C 45.704 58.228,45.310 58.256,45.792 58.290 M111.797 58.290 C 112.282 58.324,113.032 58.323,113.464 58.289 C 113.896 58.255,113.500 58.227,112.583 58.228 C 111.667 58.228,111.313 58.256,111.797 58.290 M126.131 58.290 C 126.615 58.324,127.365 58.323,127.797 58.289 C 128.230 58.255,127.833 58.227,126.917 58.228 C 126.000 58.228,125.646 58.256,126.131 58.290 M28.542 58.448 C 28.702 58.490,28.965 58.490,29.125 58.448 C 29.285 58.406,29.154 58.372,28.833 58.372 C 28.512 58.372,28.381 58.406,28.542 58.448 M50.208 58.448 C 50.369 58.490,50.631 58.490,50.792 58.448 C 50.952 58.406,50.821 58.372,50.500 58.372 C 50.179 58.372,50.048 58.406,50.208 58.448 M55.042 58.782 C 55.202 58.823,55.465 58.823,55.625 58.782 C 55.785 58.740,55.654 58.705,55.333 58.705 C 55.012 58.705,54.881 58.740,55.042 58.782 M61.000 60.917 C 61.311 61.237,61.603 61.500,61.649 61.500 C 61.695 61.500,61.478 61.237,61.167 60.917 C 60.856 60.596,60.564 60.333,60.518 60.333 C 60.472 60.333,60.689 60.596,61.000 60.917 M95.879 70.333 C 95.879 70.746,95.911 70.915,95.951 70.708 C 95.991 70.502,95.991 70.165,95.951 69.958 C 95.911 69.752,95.879 69.921,95.879 70.333 M63.712 70.833 C 63.712 71.246,63.745 71.415,63.784 71.208 C 63.824 71.002,63.824 70.665,63.784 70.458 C 63.745 70.252,63.712 70.421,63.712 70.833 M143.883 71.000 C 143.883 71.504,143.915 71.710,143.953 71.458 C 143.991 71.206,143.991 70.794,143.953 70.542 C 143.915 70.290,143.883 70.496,143.883 71.000 M95.724 73.250 C 95.724 73.983,95.754 74.263,95.789 73.871 C 95.824 73.479,95.824 72.879,95.788 72.537 C 95.752 72.196,95.723 72.517,95.724 73.250 M15.561 74.250 C 15.561 75.167,15.589 75.520,15.623 75.036 C 15.657 74.552,15.656 73.802,15.622 73.369 C 15.588 72.937,15.560 73.333,15.561 74.250 M63.892 75.500 C 63.892 76.279,63.920 76.598,63.955 76.208 C 63.990 75.819,63.990 75.181,63.955 74.792 C 63.920 74.402,63.892 74.721,63.892 75.500 M63.893 81.833 C 63.893 82.704,63.922 83.060,63.956 82.625 C 63.990 82.190,63.990 81.477,63.956 81.042 C 63.922 80.606,63.893 80.962,63.893 81.833 M15.559 83.083 C 15.559 83.908,15.587 84.267,15.622 83.880 C 15.657 83.493,15.657 82.818,15.623 82.380 C 15.588 81.942,15.560 82.258,15.559 83.083 M95.726 83.917 C 95.725 84.742,95.754 85.100,95.788 84.713 C 95.823 84.327,95.824 83.652,95.789 83.213 C 95.755 82.775,95.726 83.092,95.726 83.917 M143.879 86.167 C 143.879 86.579,143.911 86.748,143.951 86.542 C 143.991 86.335,143.991 85.998,143.951 85.792 C 143.911 85.585,143.879 85.754,143.879 86.167 M63.714 86.417 C 63.716 86.875,63.748 87.043,63.786 86.789 C 63.825 86.536,63.824 86.161,63.784 85.956 C 63.744 85.751,63.713 85.958,63.714 86.417 M95.875 86.917 C 95.877 87.283,95.911 87.414,95.951 87.206 C 95.991 86.999,95.990 86.699,95.948 86.540 C 95.906 86.380,95.874 86.550,95.875 86.917 M56.708 98.282 C 56.869 98.323,57.131 98.323,57.292 98.282 C 57.452 98.240,57.321 98.205,57.000 98.205 C 56.679 98.205,56.548 98.240,56.708 98.282 M27.042 98.786 C 27.294 98.824,27.706 98.824,27.958 98.786 C 28.210 98.748,28.004 98.717,27.500 98.717 C 26.996 98.717,26.790 98.748,27.042 98.786 M51.708 98.786 C 51.960 98.824,52.373 98.824,52.625 98.786 C 52.877 98.748,52.671 98.717,52.167 98.717 C 51.663 98.717,51.456 98.748,51.708 98.786 M107.042 98.786 C 107.294 98.824,107.706 98.824,107.958 98.786 C 108.210 98.748,108.004 98.717,107.500 98.717 C 106.996 98.717,106.790 98.748,107.042 98.786 M131.875 98.786 C 132.127 98.824,132.540 98.824,132.792 98.786 C 133.044 98.748,132.837 98.717,132.333 98.717 C 131.829 98.717,131.623 98.748,131.875 98.786 M30.042 98.955 C 30.385 98.991,30.948 98.991,31.292 98.955 C 31.635 98.919,31.354 98.889,30.667 98.889 C 29.979 98.889,29.698 98.919,30.042 98.955 M48.121 98.954 C 48.417 98.990,48.942 98.991,49.288 98.955 C 49.634 98.919,49.392 98.889,48.750 98.888 C 48.108 98.887,47.825 98.917,48.121 98.954 M110.044 98.953 C 110.297 98.991,110.672 98.990,110.877 98.951 C 111.082 98.911,110.875 98.880,110.417 98.881 C 109.958 98.882,109.791 98.915,110.044 98.953 M128.711 98.953 C 128.964 98.991,129.339 98.990,129.544 98.951 C 129.749 98.911,129.542 98.880,129.083 98.881 C 128.625 98.882,128.457 98.915,128.711 98.953 M37.532 99.124 C 38.695 99.153,40.645 99.153,41.865 99.125 C 43.085 99.096,42.133 99.073,39.750 99.073 C 37.367 99.073,36.368 99.096,37.532 99.124 M117.698 99.124 C 118.862 99.153,120.812 99.153,122.032 99.125 C 123.252 99.096,122.300 99.073,119.917 99.073 C 117.533 99.073,116.535 99.096,117.698 99.124 " stroke="none" fill="#7c7474" fill-rule="evenodd"></path><path id="path5" d="M29.711 58.453 C 29.964 58.491,30.339 58.490,30.544 58.451 C 30.749 58.411,30.542 58.380,30.083 58.381 C 29.625 58.382,29.457 58.415,29.711 58.453 M48.708 58.453 C 48.960 58.491,49.373 58.491,49.625 58.453 C 49.877 58.415,49.671 58.383,49.167 58.383 C 48.663 58.383,48.456 58.415,48.708 58.453 M109.542 58.453 C 109.794 58.491,110.206 58.491,110.458 58.453 C 110.710 58.415,110.504 58.383,110.000 58.383 C 109.496 58.383,109.290 58.415,109.542 58.453 M128.958 58.454 C 129.256 58.491,129.744 58.491,130.042 58.454 C 130.340 58.417,130.096 58.387,129.500 58.387 C 128.904 58.387,128.660 58.417,128.958 58.454 M26.375 58.615 C 26.535 58.657,26.798 58.657,26.958 58.615 C 27.119 58.573,26.988 58.539,26.667 58.539 C 26.346 58.539,26.215 58.573,26.375 58.615 M95.712 75.167 C 95.712 75.579,95.745 75.748,95.784 75.542 C 95.824 75.335,95.824 74.998,95.784 74.792 C 95.745 74.585,95.712 74.754,95.712 75.167 M15.569 78.750 C 15.569 80.400,15.594 81.052,15.624 80.200 C 15.655 79.347,15.654 77.997,15.624 77.200 C 15.593 76.402,15.569 77.100,15.569 78.750 M63.875 77.417 C 63.877 77.783,63.911 77.914,63.951 77.706 C 63.991 77.499,63.990 77.199,63.948 77.040 C 63.906 76.880,63.874 77.050,63.875 77.417 M144.062 78.667 C 144.062 79.629,144.089 80.023,144.123 79.542 C 144.157 79.060,144.157 78.273,144.123 77.792 C 144.089 77.310,144.062 77.704,144.062 78.667 M95.705 82.000 C 95.705 82.321,95.740 82.452,95.782 82.292 C 95.823 82.131,95.823 81.869,95.782 81.708 C 95.740 81.548,95.705 81.679,95.705 82.000 M28.542 98.782 C 28.702 98.823,28.965 98.823,29.125 98.782 C 29.285 98.740,29.154 98.705,28.833 98.705 C 28.512 98.705,28.381 98.740,28.542 98.782 M50.211 98.786 C 50.464 98.825,50.839 98.824,51.044 98.784 C 51.249 98.744,51.042 98.713,50.583 98.714 C 50.125 98.716,49.957 98.748,50.211 98.786 M108.627 98.785 C 108.834 98.824,109.134 98.823,109.294 98.781 C 109.453 98.739,109.283 98.707,108.917 98.709 C 108.550 98.711,108.420 98.745,108.627 98.785 M130.377 98.786 C 130.631 98.825,131.006 98.824,131.211 98.784 C 131.416 98.744,131.208 98.713,130.750 98.714 C 130.292 98.716,130.124 98.748,130.377 98.786 M46.375 98.953 C 46.627 98.991,47.040 98.991,47.292 98.953 C 47.544 98.915,47.337 98.883,46.833 98.883 C 46.329 98.883,46.123 98.915,46.375 98.953 M111.544 98.953 C 111.797 98.991,112.172 98.990,112.377 98.951 C 112.582 98.911,112.375 98.880,111.917 98.881 C 111.458 98.882,111.291 98.915,111.544 98.953 M126.792 98.954 C 127.090 98.991,127.577 98.991,127.875 98.954 C 128.173 98.917,127.929 98.887,127.333 98.887 C 126.737 98.887,126.494 98.917,126.792 98.954 " stroke="none" fill="#848484" fill-rule="evenodd"></path></g></svg>